<?xml version="1.0" encoding="UTF-8"?>
<!DOCTYPE svg PUBLIC "-//W3C//DTD SVG 1.1//EN" "http://www.w3.org/Graphics/SVG/1.1/DTD/svg11.dtd">
<svg xmlns="http://www.w3.org/2000/svg" version="1.1" width="1500px" height="844px" style="shape-rendering:geometricPrecision; text-rendering:geometricPrecision; image-rendering:optimizeQuality; fill-rule:evenodd; clip-rule:evenodd" xmlns:xlink="http://www.w3.org/1999/xlink">
<g><path style="opacity:0.991" fill="#211e1e" d="M 192.5,187.5 C 215.811,185.795 237.811,190.295 258.5,201C 275.814,213.334 284.981,230.167 286,251.5C 286.333,285.833 286.667,320.167 287,354.5C 288.075,360.893 290.242,366.893 293.5,372.5C 300.298,378.414 303.465,385.747 303,394.5C 292.064,404.19 281.23,414.023 270.5,424C 264.6,427.753 259.267,427.086 254.5,422C 247.165,414.812 240.665,406.979 235,398.5C 222.219,412.284 206.719,421.451 188.5,426C 162.993,431.705 140.16,426.538 120,410.5C 110.189,399.414 104.855,386.414 104,371.5C 99.772,334.607 114.272,308.274 147.5,292.5C 151.796,290.901 156.129,289.401 160.5,288C 182.085,283.55 203.752,280.383 225.5,278.5C 230.064,240.816 214.398,227.649 178.5,239C 171.087,245.653 166.087,253.82 163.5,263.5C 162.5,264.333 161.5,265.167 160.5,266C 145.823,265.199 131.157,263.866 116.5,262C 112.094,261.208 109.761,258.541 109.5,254C 114.965,224.866 131.632,205.199 159.5,195C 165.296,193.734 170.963,192.068 176.5,190C 181.988,189.226 187.321,188.393 192.5,187.5 Z M 215.5,313.5 C 218.833,313.5 222.167,313.5 225.5,313.5C 225.666,323.172 225.5,332.839 225,342.5C 224.004,355.656 218.837,366.823 209.5,376C 201.973,381.625 193.64,383.959 184.5,383C 173.949,379.115 167.782,371.615 166,360.5C 165.039,347.384 168.872,335.884 177.5,326C 181.759,324.066 185.759,321.732 189.5,319C 198.067,316.055 206.733,314.221 215.5,313.5 Z"/></g>
<g><path style="opacity:0.99" fill="#211e1e" d="M 737.5,187.5 C 764.192,185.089 788.525,191.256 810.5,206C 824.945,219.207 831.778,235.707 831,255.5C 831.333,288.833 831.667,322.167 832,355.5C 834.057,361.281 836.39,366.947 839,372.5C 842.333,377.167 845.667,381.833 849,386.5C 849.667,388.833 849.667,391.167 849,393.5C 840.167,401.667 831.333,409.833 822.5,418C 819.04,420.871 815.374,423.538 811.5,426C 807.947,426.598 804.614,425.931 801.5,424C 798,419.167 793.833,415 789,411.5C 786.74,406.644 783.74,402.311 780,398.5C 754.504,425.546 723.67,434.046 687.5,424C 664.888,414.71 652.054,397.876 649,373.5C 645.423,331.472 663.256,303.305 702.5,289C 725.341,283.773 748.341,280.273 771.5,278.5C 772.027,268.692 771.194,259.026 769,249.5C 765.58,241.202 759.414,236.369 750.5,235C 728.521,232.014 715.021,241.181 710,262.5C 708.079,264.867 705.579,266.2 702.5,266.5C 687.777,264.995 673.111,263.161 658.5,261C 655.735,258.005 654.902,254.505 656,250.5C 661.674,225.492 676.174,207.659 699.5,197C 711.916,192.258 724.583,189.092 737.5,187.5 Z M 760.5,313.5 C 764.167,313.5 767.833,313.5 771.5,313.5C 771.768,325.203 771.268,336.869 770,348.5C 767.768,356.299 764.435,363.632 760,370.5C 751.982,379.949 741.816,384.116 729.5,383C 716.561,377.967 710.561,368.467 711.5,354.5C 711.885,334.936 721.551,322.436 740.5,317C 747.257,315.502 753.923,314.335 760.5,313.5 Z"/></g>
<g><path style="opacity:0.99" fill="#211e1e" d="M 332.5,417.5 C 332.173,345.125 332.506,272.792 333.5,200.5C 333.682,197.297 335.348,195.464 338.5,195C 354.234,194.047 369.901,194.38 385.5,196C 386.333,196.833 387.167,197.667 388,198.5C 388.333,207.5 388.667,216.5 389,225.5C 401.593,198.778 422.76,186.944 452.5,190C 473.966,194.137 488.8,206.304 497,226.5C 506.768,206.013 522.935,193.846 545.5,190C 569.907,187.676 589.74,195.843 605,214.5C 608.52,220.394 610.854,226.727 612,233.5C 613.377,243.617 614.211,253.784 614.5,264C 613.715,315.828 613.215,367.661 613,419.5C 612.417,421.002 611.584,422.335 610.5,423.5C 593.544,424.652 576.544,424.819 559.5,424C 557.951,422.786 556.785,421.286 556,419.5C 555.667,369.5 555.333,319.5 555,269.5C 552.601,250.038 541.768,242.538 522.5,247C 512.531,250.758 506.698,257.925 505,268.5C 503.7,318.139 503.033,367.805 503,417.5C 502.654,419.848 501.487,421.681 499.5,423C 482.591,424.638 465.591,424.971 448.5,424C 446.652,422.482 445.152,420.649 444,418.5C 443.968,367.472 443.301,316.472 442,265.5C 438.532,249.667 428.699,243.167 412.5,246C 405.284,247.712 399.951,251.878 396.5,258.5C 394.827,262.352 393.661,266.352 393,270.5C 391.705,319.808 391.038,369.142 391,418.5C 390.315,421.057 388.815,422.891 386.5,424C 370.167,424.667 353.833,424.667 337.5,424C 335,422.513 333.334,420.346 332.5,417.5 Z"/></g>
<g><path style="opacity:0.99" fill="#211e1e" d="M 1140.5,189.5 C 1181.48,186.898 1211.98,203.231 1232,238.5C 1252.6,285.539 1252.6,332.539 1232,379.5C 1206.33,423.076 1168.83,437.909 1119.5,424C 1100.66,416.148 1085.82,403.648 1075,386.5C 1055.5,346.477 1051.33,304.811 1062.5,261.5C 1069.5,236.633 1083.5,216.799 1104.5,202C 1116.04,196.098 1128.04,191.932 1140.5,189.5 Z M 1146.5,235.5 C 1160.39,233.819 1170.22,239.152 1176,251.5C 1179.39,258.751 1181.39,266.418 1182,274.5C 1184.94,298.518 1184.94,322.518 1182,346.5C 1181.05,353.979 1178.71,360.979 1175,367.5C 1166.27,382.06 1154.1,385.893 1138.5,379C 1132.1,373.031 1127.6,365.864 1125,357.5C 1123.02,349.274 1121.68,340.941 1121,332.5C 1120.33,314.833 1120.33,297.167 1121,279.5C 1121.39,265.653 1125.72,253.32 1134,242.5C 1137.73,239.223 1141.89,236.89 1146.5,235.5 Z"/></g>
<g><path style="opacity:0.984" fill="#211e1e" d="M 1379.5,189.5 C 1396.35,188.594 1412.01,192.428 1426.5,201C 1429.97,205.467 1433.8,209.633 1438,213.5C 1440.55,217.935 1442.55,222.601 1444,227.5C 1445.86,236.499 1447.52,245.499 1449,254.5C 1449.83,309.503 1449.67,364.503 1448.5,419.5C 1447.51,421.323 1446.18,422.823 1444.5,424C 1427.83,424.667 1411.17,424.667 1394.5,424C 1392.95,422.786 1391.78,421.286 1391,419.5C 1390.95,369.146 1390.29,318.813 1389,268.5C 1385.1,247.802 1373.27,240.968 1353.5,248C 1347.5,251.671 1343.33,256.838 1341,263.5C 1339.35,268.754 1338.02,274.087 1337,279.5C 1335.75,326.152 1335.08,372.818 1335,419.5C 1333.64,421.105 1332.14,422.605 1330.5,424C 1314.17,424.667 1297.83,424.667 1281.5,424C 1279.33,423.167 1277.83,421.667 1277,419.5C 1276.33,345.833 1276.33,272.167 1277,198.5C 1278.32,196.513 1280.15,195.346 1282.5,195C 1298.23,194.047 1313.9,194.38 1329.5,196C 1330.46,197.419 1331.29,198.919 1332,200.5C 1332.33,210.5 1332.67,220.5 1333,230.5C 1340.59,207.738 1356.09,194.071 1379.5,189.5 Z"/></g>
<g><path style="opacity:0.99" fill="#211e1e" d="M 884.5,194.5 C 933.168,194.333 981.834,194.5 1030.5,195C 1032.26,196.008 1033.43,197.508 1034,199.5C 1034.67,210.167 1034.67,220.833 1034,231.5C 1032.94,234.618 1031.61,237.618 1030,240.5C 1004.71,276.246 979.544,312.079 954.5,348C 982.612,346.613 1008.94,352.613 1033.5,366C 1035.99,369.137 1037.82,372.637 1039,376.5C 1039.67,387.833 1039.67,399.167 1039,410.5C 1037.7,416.901 1033.86,419.401 1027.5,418C 979.493,394.82 931.493,394.82 883.5,418C 879.726,419.183 876.559,418.349 874,415.5C 872.866,408.1 872.366,400.6 872.5,393C 872.667,386.167 872.833,379.333 873,372.5C 873.705,364.756 876.372,357.756 881,351.5C 906.695,315.305 932.195,278.972 957.5,242.5C 933.84,241.667 910.174,241.167 886.5,241C 882.667,240.5 880.5,238.333 880,234.5C 879.083,222.109 879.416,209.776 881,197.5C 882.145,196.364 883.312,195.364 884.5,194.5 Z"/></g>
<g><path style="opacity:0.008" fill="#000000" d="M 333.5,200.5 C 332.506,272.792 332.173,345.125 332.5,417.5C 331.334,345.668 331.168,273.668 332,201.5C 332.383,200.944 332.883,200.611 333.5,200.5 Z"/></g>
<g><path style="opacity:0.963" fill="#fe9800" d="M 947.5,431.5 C 965.662,430.651 983.329,433.151 1000.5,439C 1003.06,439.685 1004.89,441.185 1006,443.5C 1008.39,460.756 1007.05,477.756 1002,494.5C 995.125,519.092 982.959,540.592 965.5,559C 962.527,560.647 959.86,562.647 957.5,565C 954.854,565.497 952.187,565.664 949.5,565.5C 948.737,562.859 948.57,560.192 949,557.5C 952.976,546.569 957.143,535.736 961.5,525C 966.731,510.41 970.065,495.41 971.5,480C 972.578,473.87 970.578,469.203 965.5,466C 961.277,464.528 956.943,463.528 952.5,463C 927.732,461.936 903.065,463.102 878.5,466.5C 872.845,466.118 871.011,463.118 873,457.5C 885.184,446.826 899.351,439.993 915.5,437C 926.176,434.388 936.843,432.555 947.5,431.5 Z"/></g>
<g><path style="opacity:0.978" fill="#fe9800" d="M 297.5,445.5 C 299.288,445.215 300.955,445.548 302.5,446.5C 436.545,522.479 580.545,552.645 734.5,537C 801.948,528.556 866.948,511.222 929.5,485C 942.272,484.439 946.772,490.273 943,502.5C 938.886,506.129 934.719,509.629 930.5,513C 861.285,557.186 785.619,583.519 703.5,592C 557.666,604.929 427.666,566.263 313.5,476C 306.641,469.805 299.808,463.638 293,457.5C 291.014,452.3 292.514,448.3 297.5,445.5 Z"/></g>
</svg>
