<?xml version="1.0" encoding="UTF-8"?>
<!DOCTYPE svg PUBLIC "-//W3C//DTD SVG 1.1//EN" "http://www.w3.org/Graphics/SVG/1.1/DTD/svg11.dtd">
<svg xmlns="http://www.w3.org/2000/svg" version="1.1" width="500px" height="500px" style="shape-rendering:geometricPrecision; text-rendering:geometricPrecision; image-rendering:optimizeQuality; fill-rule:evenodd; clip-rule:evenodd" xmlns:xlink="http://www.w3.org/1999/xlink">
<g><path style="opacity:0.987" fill="#563d7c" d="M 174.5,109.5 C 224.501,109.333 274.501,109.5 324.5,110C 341.071,114.96 349.571,126.126 350,143.5C 350.667,187.5 350.667,231.5 350,275.5C 348.638,296.529 337.471,308.029 316.5,310C 271.833,310.667 227.167,310.667 182.5,310C 165.525,309.269 154.692,300.769 150,284.5C 149.333,234.5 149.333,184.5 150,134.5C 153.683,121.651 161.85,113.318 174.5,109.5 Z"/></g>
<g><path style="opacity:1" fill="#c4bcd1" d="M 265.5,153.5 C 245.167,153.5 224.833,153.5 204.5,153.5C 204.5,192.167 204.5,230.833 204.5,269.5C 203.501,230.67 203.168,191.67 203.5,152.5C 224.34,152.169 245.007,152.503 265.5,153.5 Z"/></g>
<g><path style="opacity:1" fill="#fcfcfd" d="M 265.5,153.5 C 290.294,156.123 299.461,169.457 293,193.5C 289.777,199.723 284.943,204.223 278.5,207C 292.263,210.938 299.597,220.105 300.5,234.5C 300.689,252.483 292.023,263.65 274.5,268C 251.205,269.437 227.872,269.937 204.5,269.5C 204.5,230.833 204.5,192.167 204.5,153.5C 224.833,153.5 245.167,153.5 265.5,153.5 Z"/></g>
<g><path style="opacity:1" fill="#563e7c" d="M 224.5,169.5 C 238.226,169.073 251.893,169.573 265.5,171C 272.105,173.284 275.105,177.951 274.5,185C 275.079,193.756 271.079,199.089 262.5,201C 249.838,201.5 237.171,201.667 224.5,201.5C 224.5,190.833 224.5,180.167 224.5,169.5 Z"/></g>
<g><path style="opacity:1" fill="#563d7c" d="M 224.5,216.5 C 239.544,216.104 254.544,216.604 269.5,218C 276.639,220.943 279.972,226.276 279.5,234C 280.172,241.658 277.172,247.325 270.5,251C 255.225,252.435 239.891,252.935 224.5,252.5C 224.5,240.5 224.5,228.5 224.5,216.5 Z"/></g>
<g><path style="opacity:0.92" fill="#553d7c" d="M 111.5,329.5 C 121.172,329.334 130.839,329.5 140.5,330C 147.132,333.097 149.299,338.264 147,345.5C 146.028,347.305 144.861,348.972 143.5,350.5C 148.008,353.015 150.008,356.848 149.5,362C 149.972,368.536 146.972,372.536 140.5,374C 130.839,374.5 121.172,374.666 111.5,374.5C 111.5,359.5 111.5,344.5 111.5,329.5 Z M 120.5,335.5 C 126.262,335.149 131.928,335.649 137.5,337C 140.587,341.744 139.587,345.411 134.5,348C 129.845,348.499 125.179,348.666 120.5,348.5C 120.5,344.167 120.5,339.833 120.5,335.5 Z M 120.5,354.5 C 125.844,354.334 131.177,354.501 136.5,355C 143.167,359.333 143.167,363.667 136.5,368C 131.177,368.499 125.844,368.666 120.5,368.5C 120.5,363.833 120.5,359.167 120.5,354.5 Z"/></g>
<g><path style="opacity:0.86" fill="#553d7c" d="M 230.5,332.5 C 233.5,332.5 236.5,332.5 239.5,332.5C 239.5,335.5 239.5,338.5 239.5,341.5C 241.5,341.5 243.5,341.5 245.5,341.5C 245.5,343.167 245.5,344.833 245.5,346.5C 243.5,346.5 241.5,346.5 239.5,346.5C 239.334,353.508 239.5,360.508 240,367.5C 241.667,368.833 243.333,368.833 245,367.5C 245.497,369.81 245.663,372.143 245.5,374.5C 241.818,374.665 238.152,374.499 234.5,374C 233.667,373.167 232.833,372.333 232,371.5C 230.63,363.236 230.13,354.903 230.5,346.5C 228.833,346.5 227.167,346.5 225.5,346.5C 225.5,344.833 225.5,343.167 225.5,341.5C 227.167,341.5 228.833,341.5 230.5,341.5C 230.5,338.5 230.5,335.5 230.5,332.5 Z"/></g>
<g><path style="opacity:0.86" fill="#553d7c" d="M 283.5,332.5 C 286.5,332.5 289.5,332.5 292.5,332.5C 292.5,335.5 292.5,338.5 292.5,341.5C 294.5,341.5 296.5,341.5 298.5,341.5C 298.5,343.167 298.5,344.833 298.5,346.5C 296.5,346.5 294.5,346.5 292.5,346.5C 292.334,353.508 292.5,360.508 293,367.5C 294.667,368.833 296.333,368.833 298,367.5C 298.497,369.81 298.663,372.143 298.5,374.5C 294.818,374.665 291.152,374.499 287.5,374C 286.667,373.167 285.833,372.333 285,371.5C 283.63,363.236 283.13,354.903 283.5,346.5C 281.833,346.5 280.167,346.5 278.5,346.5C 278.5,344.833 278.5,343.167 278.5,341.5C 280.167,341.5 281.833,341.5 283.5,341.5C 283.5,338.5 283.5,335.5 283.5,332.5 Z"/></g>
<g><path style="opacity:0.89" fill="#553d7c" d="M 164.5,341.5 C 182.07,340.235 189.236,348.235 186,365.5C 180.502,375.451 172.335,378.284 161.5,374C 155.591,370.571 152.924,365.404 153.5,358.5C 153.433,350.275 157.1,344.609 164.5,341.5 Z M 168.5,347.5 C 175.104,348.103 178.77,351.77 179.5,358.5C 177.781,368.609 172.614,371.276 164,366.5C 159.604,358.511 161.104,352.177 168.5,347.5 Z"/></g>
<g><path style="opacity:0.89" fill="#553d7c" d="M 201.5,341.5 C 219.07,340.235 226.236,348.235 223,365.5C 217.502,375.451 209.335,378.284 198.5,374C 192.591,370.571 189.924,365.404 190.5,358.5C 190.433,350.275 194.1,344.609 201.5,341.5 Z M 205.5,347.5 C 212.104,348.103 215.77,351.77 216.5,358.5C 214.781,368.609 209.614,371.276 201,366.5C 196.604,358.511 198.104,352.177 205.5,347.5 Z"/></g>
<g><path style="opacity:0.898" fill="#553d7c" d="M 256.5,341.5 C 261.599,341.175 266.599,341.675 271.5,343C 274.675,344.995 276.342,347.828 276.5,351.5C 273.813,351.664 271.146,351.497 268.5,351C 264.6,346.514 260.6,346.348 256.5,350.5C 257.364,352.197 258.697,353.363 260.5,354C 266.755,354.43 272.255,356.597 277,360.5C 279.288,367.865 276.788,372.698 269.5,375C 264.079,375.839 258.746,375.506 253.5,374C 249.81,371.831 248.143,368.664 248.5,364.5C 252.586,363.846 255.919,365.012 258.5,368C 262.083,369.952 265.583,369.786 269,367.5C 269.781,366.056 269.614,364.723 268.5,363.5C 263.577,361.813 258.577,360.313 253.5,359C 246.302,351.819 247.302,345.986 256.5,341.5 Z"/></g>
<g><path style="opacity:0.887" fill="#553d7c" d="M 302.5,341.5 C 305.167,341.5 307.833,341.5 310.5,341.5C 310.343,342.873 310.51,344.207 311,345.5C 314.04,342.034 317.874,340.7 322.5,341.5C 322.664,344.187 322.497,346.854 322,349.5C 317.772,348.271 314.439,349.604 312,353.5C 310.661,360.426 310.161,367.426 310.5,374.5C 307.833,374.5 305.167,374.5 302.5,374.5C 302.5,363.5 302.5,352.5 302.5,341.5 Z"/></g>
<g><path style="opacity:0.904" fill="#553d7c" d="M 332.5,341.5 C 336.846,341.334 341.179,341.501 345.5,342C 348.196,342.69 350.363,344.19 352,346.5C 352.333,353.5 352.667,360.5 353,367.5C 353.71,368.973 354.876,369.64 356.5,369.5C 356.5,371.5 356.5,373.5 356.5,375.5C 353.482,375.665 350.482,375.498 347.5,375C 345.495,372.397 343.162,372.397 340.5,375C 327.956,377.778 322.456,372.945 324,360.5C 325.501,358.416 327.501,357.083 330,356.5C 334.465,355.506 338.965,354.672 343.5,354C 346.092,351.989 345.925,350.156 343,348.5C 338.65,346.668 335.15,347.668 332.5,351.5C 329.914,352.48 327.247,352.813 324.5,352.5C 324.866,347.137 327.533,343.471 332.5,341.5 Z M 342.5,358.5 C 346.117,364.18 344.45,367.846 337.5,369.5C 331.345,368.852 330.011,366.019 333.5,361C 336.579,360.027 339.579,359.194 342.5,358.5 Z"/></g>
<g><path style="opacity:0.91" fill="#553d7c" d="M 360.5,341.5 C 362.833,341.5 365.167,341.5 367.5,341.5C 367.343,342.873 367.51,344.207 368,345.5C 369.214,343.951 370.714,342.785 372.5,342C 385.501,339.836 392.501,345.336 393.5,358.5C 391.534,374.23 383.367,378.896 369,372.5C 368.501,377.155 368.334,381.821 368.5,386.5C 365.833,386.5 363.167,386.5 360.5,386.5C 360.5,371.5 360.5,356.5 360.5,341.5 Z M 374.5,347.5 C 381.328,348.164 384.995,351.997 385.5,359C 384.939,364.639 381.939,368.139 376.5,369.5C 370.94,367.939 367.94,364.272 367.5,358.5C 367.614,353.241 369.947,349.575 374.5,347.5 Z"/></g>
</svg>
