<?xml version="1.0" encoding="UTF-8"?>
<!DOCTYPE svg PUBLIC "-//W3C//DTD SVG 1.1//EN" "http://www.w3.org/Graphics/SVG/1.1/DTD/svg11.dtd">
<svg xmlns="http://www.w3.org/2000/svg" version="1.1" width="371px" height="306px" style="shape-rendering:geometricPrecision; text-rendering:geometricPrecision; image-rendering:optimizeQuality; fill-rule:evenodd; clip-rule:evenodd" xmlns:xlink="http://www.w3.org/1999/xlink">
<g><path style="opacity:0.008" fill="#888888" d="M 51.5,0.5 C 56.8333,0.5 62.1667,0.5 67.5,0.5C 67.5,8.16667 67.5,15.8333 67.5,23.5C 66.2448,16.7003 65.5781,9.70033 65.5,2.5C 60.3814,3.1031 55.7147,2.43644 51.5,0.5 Z"/></g>
<g><path style="opacity:1" fill="#9a9a9a" d="M 40.5,3.5 C 35.2599,2.55087 29.9265,2.21754 24.5,2.5C 29.3958,0.553866 34.7291,-0.112801 40.5,0.5C 40.5,1.5 40.5,2.5 40.5,3.5 Z"/></g>
<g><path style="opacity:1" fill="#afafaf" d="M 110.5,0.5 C 97.8763,2.48089 84.8763,3.14755 71.5,2.5C 71.1667,2.5 70.8333,2.5 70.5,2.5C 83.4581,0.518586 96.7914,-0.148081 110.5,0.5 Z"/></g>
<g><path style="opacity:1" fill="#c3c3c3" d="M 185.5,2.5 C 180.167,2.5 174.833,2.5 169.5,2.5C 171.743,1.18834 174.41,0.521677 177.5,0.5C 180.59,0.521677 183.257,1.18834 185.5,2.5 Z"/></g>
<g><path style="opacity:0.941" fill="#2f2f2f" d="M 24.5,2.5 C 29.9265,2.21754 35.2599,2.55087 40.5,3.5C 40.5,6.83333 40.5,10.1667 40.5,13.5C 39.6618,13.8417 39.3284,14.5084 39.5,15.5C 34.5947,14.5546 29.5947,14.2213 24.5,14.5C 24.5,10.5 24.5,6.5 24.5,2.5 Z"/></g>
<g><path style="opacity:0.997" fill="#303030" d="M 110.5,0.5 C 111.487,5.30537 111.821,10.3054 111.5,15.5C 107.5,15.5 103.5,15.5 99.5,15.5C 99.5,20.5 99.5,25.5 99.5,30.5C 98.7875,25.632 98.1208,20.632 97.5,15.5C 89.1667,14.8333 80.8333,14.1667 72.5,13.5C 71.5741,9.90623 71.2408,6.23957 71.5,2.5C 84.8763,3.14755 97.8763,2.48089 110.5,0.5 Z"/></g>
<g><path style="opacity:1" fill="#323232" d="M 116.5,2.5 C 121.179,2.33418 125.845,2.50085 130.5,3C 132.72,5.71279 134.72,8.54612 136.5,11.5C 129.999,12.1482 123.499,12.8149 117,13.5C 116.501,9.84841 116.335,6.18174 116.5,2.5 Z"/></g>
<g><path style="opacity:0.993" fill="#2e2e2e" d="M 51.5,0.5 C 55.7147,2.43644 60.3814,3.1031 65.5,2.5C 65.5781,9.70033 66.2448,16.7003 67.5,23.5C 67.5,24.5 67.5,25.5 67.5,26.5C 66.8826,26.6107 66.3826,26.944 66,27.5C 65.5012,23.5138 65.3345,19.5138 65.5,15.5C 60.6223,15.3536 55.9556,15.3536 51.5,15.5C 51.6716,14.5084 51.3382,13.8417 50.5,13.5C 50.1818,8.96775 50.5151,4.63441 51.5,0.5 Z"/></g>
<g><path style="opacity:1" fill="#303030" d="M 164.5,2.5 C 164.617,6.19029 164.617,10.1903 164.5,14.5C 156.833,14.5 149.167,14.5 141.5,14.5C 144.034,10.6084 146.7,6.77506 149.5,3C 154.489,2.50074 159.489,2.33407 164.5,2.5 Z"/></g>
<g><path style="opacity:0.993" fill="#2e2e2e" d="M 169.5,2.5 C 174.833,2.5 180.167,2.5 185.5,2.5C 185.5,7.5 185.5,12.5 185.5,17.5C 179.942,17.0573 174.609,17.7239 169.5,19.5C 169.5,13.8333 169.5,8.16667 169.5,2.5 Z"/></g>
<g><path style="opacity:0.902" fill="#aaaaaa" d="M 164.5,2.5 C 159.489,2.33407 154.489,2.50074 149.5,3C 146.7,6.77506 144.034,10.6084 141.5,14.5C 141.217,15.2891 140.717,15.9558 140,16.5C 138.824,14.8043 137.657,13.1376 136.5,11.5C 134.72,8.54612 132.72,5.71279 130.5,3C 125.845,2.50085 121.179,2.33418 116.5,2.5C 116.167,2.5 115.833,2.5 115.5,2.5C 117.743,1.18834 120.41,0.521677 123.5,0.5C 126.167,0.666667 128.833,0.833333 131.5,1C 134.457,5.08007 137.29,9.24674 140,13.5C 142.833,9.33333 145.667,5.16667 148.5,1C 151.167,0.833333 153.833,0.666667 156.5,0.5C 159.59,0.521677 162.257,1.18834 164.5,2.5 Z"/></g>
<g><path style="opacity:0.678" fill="#9b9b9b" d="M 50.5,13.5 C 51.3382,13.8417 51.6716,14.5084 51.5,15.5C 47.5,15.5 43.5,15.5 39.5,15.5C 39.3284,14.5084 39.6618,13.8417 40.5,13.5C 43.7814,12.372 47.1148,12.372 50.5,13.5 Z"/></g>
<g><path style="opacity:0.421" fill="#1b1b1b" d="M 70.5,2.5 C 70.8333,2.5 71.1667,2.5 71.5,2.5C 71.2408,6.23957 71.5741,9.90623 72.5,13.5C 80.8333,14.1667 89.1667,14.8333 97.5,15.5C 98.1208,20.632 98.7875,25.632 99.5,30.5C 99.5,34.1667 99.5,37.8333 99.5,41.5C 97.6947,34.232 96.8614,26.5653 97,18.5C 92.9341,19.4637 88.7675,19.797 84.5,19.5C 84.7678,17.901 84.4345,16.5676 83.5,15.5C 79.1667,15.5 74.8333,15.5 70.5,15.5C 70.5,11.1667 70.5,6.83333 70.5,2.5 Z"/></g>
<g><path style="opacity:0.99" fill="#1a1a1a" d="M 115.5,2.5 C 115.833,2.5 116.167,2.5 116.5,2.5C 116.335,6.18174 116.501,9.84841 117,13.5C 123.499,12.8149 129.999,12.1482 136.5,11.5C 137.657,13.1376 138.824,14.8043 140,16.5C 140.717,15.9558 141.217,15.2891 141.5,14.5C 149.167,14.5 156.833,14.5 164.5,14.5C 164.5,15.8333 164.5,17.1667 164.5,18.5C 148.578,19.4841 132.578,19.8175 116.5,19.5C 116.768,17.901 116.434,16.5676 115.5,15.5C 115.5,11.1667 115.5,6.83333 115.5,2.5 Z"/></g>
<g><path style="opacity:0.916" fill="#020202" d="M 185.5,17.5 C 185.5,20.5 185.5,23.5 185.5,26.5C 185.196,27.1499 184.863,27.8165 184.5,28.5C 191.468,29.497 198.468,29.8303 205.5,29.5C 205.5,33.8333 205.5,38.1667 205.5,42.5C 193.5,42.5 181.5,42.5 169.5,42.5C 169.5,34.8333 169.5,27.1667 169.5,19.5C 174.609,17.7239 179.942,17.0573 185.5,17.5 Z"/></g>
<g><path style="opacity:0.883" fill="#070707" d="M 24.5,14.5 C 29.5947,14.2213 34.5947,14.5546 39.5,15.5C 43.5,15.5 47.5,15.5 51.5,15.5C 55.9556,15.3536 60.6223,15.3536 65.5,15.5C 65.3345,19.5138 65.5012,23.5138 66,27.5C 66.3826,26.944 66.8826,26.6107 67.5,26.5C 67.6659,31.5111 67.4993,36.5111 67,41.5C 61.9283,42.4714 56.7616,42.8047 51.5,42.5C 51.5,38.1667 51.5,33.8333 51.5,29.5C 48.1667,29.5 44.8333,29.5 41.5,29.5C 41.6282,33.8814 41.2949,38.2147 40.5,42.5C 35.1667,42.5 29.8333,42.5 24.5,42.5C 24.5,33.1667 24.5,23.8333 24.5,14.5 Z"/></g>
<g><path style="opacity:0.915" fill="#010101" d="M 83.5,15.5 C 84.4345,16.5676 84.7678,17.901 84.5,19.5C 88.7675,19.797 92.9341,19.4637 97,18.5C 96.8614,26.5653 97.6947,34.232 99.5,41.5C 94.3595,42.4881 89.0262,42.8214 83.5,42.5C 83.5,33.5 83.5,24.5 83.5,15.5 Z"/></g>
<g><path style="opacity:0.868" fill="#020202" d="M 115.5,15.5 C 116.434,16.5676 116.768,17.901 116.5,19.5C 132.578,19.8175 148.578,19.4841 164.5,18.5C 164.5,26.5 164.5,34.5 164.5,42.5C 159.167,42.5 153.833,42.5 148.5,42.5C 148.666,37.1563 148.499,31.8229 148,26.5C 145.694,30.4657 143.028,34.1324 140,37.5C 136.972,34.1324 134.306,30.4657 132,26.5C 131.501,31.8229 131.334,37.1563 131.5,42.5C 126.167,42.5 120.833,42.5 115.5,42.5C 115.5,33.5 115.5,24.5 115.5,15.5 Z"/></g>
<g><path style="opacity:1" fill="#868686" d="M 185.5,26.5 C 190.174,26.6674 194.841,27.0007 199.5,27.5C 201.952,27.5391 203.952,28.2057 205.5,29.5C 198.468,29.8303 191.468,29.497 184.5,28.5C 184.863,27.8165 185.196,27.1499 185.5,26.5 Z"/></g>
<g><path style="opacity:0.376" fill="#763311" d="M 224.5,49.5 C 223.662,49.1583 223.328,48.4916 223.5,47.5C 206.008,46.5033 188.341,46.1699 170.5,46.5C 168.5,46.5 166.5,46.5 164.5,46.5C 148.167,46.5 131.833,46.5 115.5,46.5C 78.1607,46.1668 40.8274,46.5001 3.5,47.5C 3.13727,48.1835 2.80393,48.8501 2.5,49.5C 2.16667,49.5 1.83333,49.5 1.5,49.5C 1.53944,48.4168 1.87277,47.4168 2.5,46.5C 76.497,45.5 150.497,45.1667 224.5,45.5C 224.5,46.8333 224.5,48.1667 224.5,49.5 Z"/></g>
<g><path style="opacity:1" fill="#ee8231" d="M 115.5,46.5 C 115.5,47.5 115.5,48.5 115.5,49.5C 77.8333,49.5 40.1667,49.5 2.5,49.5C 2.80393,48.8501 3.13727,48.1835 3.5,47.5C 40.8274,46.5001 78.1607,46.1668 115.5,46.5 Z"/></g>
<g><path style="opacity:1" fill="#df6822" d="M 115.5,46.5 C 131.833,46.5 148.167,46.5 164.5,46.5C 164.5,47.5 164.5,48.5 164.5,49.5C 148.167,49.5 131.833,49.5 115.5,49.5C 115.5,48.5 115.5,47.5 115.5,46.5 Z"/></g>
<g><path style="opacity:1" fill="#e5742a" d="M 170.5,46.5 C 188.341,46.1699 206.008,46.5033 223.5,47.5C 205.931,49.1549 188.264,49.8216 170.5,49.5C 170.5,48.5 170.5,47.5 170.5,46.5 Z"/></g>
<g><path style="opacity:1" fill="#f8ac65" d="M 164.5,46.5 C 166.5,46.5 168.5,46.5 170.5,46.5C 170.5,47.5 170.5,48.5 170.5,49.5C 188.264,49.8216 205.931,49.1549 223.5,47.5C 223.328,48.4916 223.662,49.1583 224.5,49.5C 179.179,51.495 133.512,52.1616 87.5,51.5C 58.8333,51.5 30.1667,51.5 1.5,51.5C 1.73731,52.791 1.40397,53.791 0.5,54.5C 0.215521,52.5853 0.548855,50.9187 1.5,49.5C 1.83333,49.5 2.16667,49.5 2.5,49.5C 40.1667,49.5 77.8333,49.5 115.5,49.5C 131.833,49.5 148.167,49.5 164.5,49.5C 164.5,48.5 164.5,47.5 164.5,46.5 Z"/></g>
<g><path style="opacity:1" fill="#e34c25" d="M 87.5,51.5 C 132.997,52.4988 178.664,52.8321 224.5,52.5C 224.232,54.099 224.566,55.4324 225.5,56.5C 224.303,65.4717 223.303,74.4717 222.5,83.5C 221.662,83.8417 221.328,84.5084 221.5,85.5C 219.974,95.4286 218.974,105.429 218.5,115.5C 217.51,121.31 217.177,127.31 217.5,133.5C 216.687,139.815 216.021,146.148 215.5,152.5C 215.167,152.5 214.833,152.5 214.5,152.5C 214.167,144.5 213.833,144.5 213.5,152.5C 208.786,152.827 204.12,152.493 199.5,151.5C 200.988,149.114 200.655,148.448 198.5,149.5C 198.5,147.833 198.5,146.167 198.5,144.5C 199.98,132.849 201.313,121.182 202.5,109.5C 204.087,96.1994 205.421,82.8661 206.5,69.5C 175.833,69.5 145.167,69.5 114.5,69.5C 114.5,71.1667 114.5,72.8333 114.5,74.5C 113.514,78.97 113.181,83.6367 113.5,88.5C 90.1643,88.3334 66.831,88.5 43.5,89C 44.1172,91.277 44.7839,93.4437 45.5,95.5C 46.7023,110.189 48.0356,124.855 49.5,139.5C 49.9157,144.493 50.2491,149.493 50.5,154.5C 49.7109,154.217 49.0442,153.717 48.5,153C 37.505,152.5 26.505,152.333 15.5,152.5C 16.451,169.379 18.1177,186.045 20.5,202.5C 20.5,206.167 20.5,209.833 20.5,213.5C 19.8333,212.167 19.1667,210.833 18.5,209.5C 18.5,208.167 18.5,206.833 18.5,205.5C 18.5343,201.141 18.201,196.808 17.5,192.5C 17.4146,190.667 16.7479,189.334 15.5,188.5C 14.7011,179.844 14.0345,171.178 13.5,162.5C 13.8443,156.902 13.1776,151.568 11.5,146.5C 11.4431,145.391 11.1098,144.391 10.5,143.5C 11.1582,142.207 11.4915,140.707 11.5,139C 10.8981,133.176 10.3981,127.342 10,121.5C 9.45397,118.621 8.62064,115.954 7.5,113.5C 6.91979,109.19 6.58645,104.857 6.5,100.5C 6.79558,92.1972 5.79558,84.1972 3.5,76.5C 2.5,69.1667 1.5,61.8333 0.5,54.5C 1.40397,53.791 1.73731,52.791 1.5,51.5C 30.1667,51.5 58.8333,51.5 87.5,51.5 Z"/></g>
<g><path style="opacity:1" fill="#ed8257" d="M 224.5,49.5 C 225.468,51.6074 225.802,53.9407 225.5,56.5C 224.566,55.4324 224.232,54.099 224.5,52.5C 178.664,52.8321 132.997,52.4988 87.5,51.5C 133.512,52.1616 179.179,51.495 224.5,49.5 Z"/></g>
<g><path style="opacity:1" fill="#999999" d="M 275.5,63.5 C 274.532,61.3926 274.198,59.0593 274.5,56.5C 268.167,56.5 261.833,56.5 255.5,56.5C 261.75,54.5411 268.416,53.8745 275.5,54.5C 275.5,57.5 275.5,60.5 275.5,63.5 Z"/></g>
<g><path style="opacity:1" fill="#808080" d="M 296.5,64.5 C 295.833,64.5 295.5,64.1667 295.5,63.5C 297.167,63.5 298.833,63.5 300.5,63.5C 300.5,61.1667 300.5,58.8333 300.5,56.5C 294.833,56.5 289.167,56.5 283.5,56.5C 283.5,59.1667 283.5,61.8333 283.5,64.5C 282.521,61.3752 282.187,58.0419 282.5,54.5C 289.2,54.17 295.866,54.5033 302.5,55.5C 301.167,58.1667 301.167,60.8333 302.5,63.5C 300.604,64.4656 298.604,64.7989 296.5,64.5 Z"/></g>
<g><path style="opacity:0.997" fill="#8d8b8c" d="M 329.5,56.5 C 323.5,56.5 317.5,56.5 311.5,56.5C 311.342,59.9023 311.676,63.2356 312.5,66.5C 311.542,66.0472 310.708,65.3805 310,64.5C 309.502,61.1832 309.335,57.8499 309.5,54.5C 316.584,53.8745 323.25,54.5411 329.5,56.5 Z"/></g>
<g><path style="opacity:0.986" fill="#050505" d="M 255.5,56.5 C 261.833,56.5 268.167,56.5 274.5,56.5C 274.198,59.0593 274.532,61.3926 275.5,63.5C 272.038,64.4816 268.371,64.815 264.5,64.5C 263.883,64.3893 263.383,64.056 263,63.5C 262.502,66.4816 262.335,69.4816 262.5,72.5C 266.5,72.5 270.5,72.5 274.5,72.5C 274.205,74.7354 274.539,76.7354 275.5,78.5C 269.021,79.4907 262.354,79.824 255.5,79.5C 255.5,71.8333 255.5,64.1667 255.5,56.5 Z"/></g>
<g><path style="opacity:0.987" fill="#030303" d="M 295.5,63.5 C 294.475,63.8966 294.308,64.5632 295,65.5C 297.04,67.3702 298.873,69.3702 300.5,71.5C 299.99,74.3878 300.656,76.7211 302.5,78.5C 295.833,79.8333 289.167,79.8333 282.5,78.5C 283.461,76.7354 283.795,74.7354 283.5,72.5C 286.059,72.8016 288.393,72.4682 290.5,71.5C 290.167,70.5 289.5,69.8333 288.5,69.5C 286.5,68.1667 284.833,66.5 283.5,64.5C 283.5,61.8333 283.5,59.1667 283.5,56.5C 289.167,56.5 294.833,56.5 300.5,56.5C 300.5,58.8333 300.5,61.1667 300.5,63.5C 298.833,63.5 297.167,63.5 295.5,63.5 Z"/></g>
<g><path style="opacity:0.987" fill="#060606" d="M 329.5,56.5 C 329.5,59.1667 329.5,61.8333 329.5,64.5C 327.833,64.5 326.167,64.5 324.5,64.5C 322.895,63.0313 322.395,63.3646 323,65.5C 325.037,67.7059 327.203,69.7059 329.5,71.5C 329.5,74.1667 329.5,76.8333 329.5,79.5C 322.646,79.824 315.979,79.4907 309.5,78.5C 310.461,76.7354 310.795,74.7354 310.5,72.5C 313.247,72.8134 315.914,72.48 318.5,71.5C 318.376,70.8933 318.043,70.56 317.5,70.5C 316.441,68.4446 314.775,67.1112 312.5,66.5C 311.676,63.2356 311.342,59.9023 311.5,56.5C 317.5,56.5 323.5,56.5 329.5,56.5 Z"/></g>
<g><path style="opacity:1" fill="#d1d1d1" d="M 295.5,63.5 C 295.5,64.1667 295.833,64.5 296.5,64.5C 298.631,66.6106 300.298,68.9439 301.5,71.5C 301.167,71.5 300.833,71.5 300.5,71.5C 298.873,69.3702 297.04,67.3702 295,65.5C 294.308,64.5632 294.475,63.8966 295.5,63.5 Z"/></g>
<g><path style="opacity:0.929" fill="#e8e6e7" d="M 324.5,64.5 C 326.58,66.5732 328.246,68.9066 329.5,71.5C 327.203,69.7059 325.037,67.7059 323,65.5C 322.395,63.3646 322.895,63.0313 324.5,64.5 Z"/></g>
<g><path style="opacity:0.53" fill="#dedadb" d="M 312.5,66.5 C 314.775,67.1112 316.441,68.4446 317.5,70.5C 315.052,71.4731 312.385,71.8064 309.5,71.5C 311.292,70.6909 313.292,70.1909 315.5,70C 314.29,68.9609 313.29,67.7942 312.5,66.5 Z"/></g>
<g><path style="opacity:0.646" fill="#f2f1f1" d="M 288.5,69.5 C 289.5,69.8333 290.167,70.5 290.5,71.5C 287.833,71.5 285.167,71.5 282.5,71.5C 284.5,70.8333 286.5,70.1667 288.5,69.5 Z"/></g>
<g><path style="opacity:1" fill="#f2813f" d="M 202.5,109.5 C 201.566,108.432 201.232,107.099 201.5,105.5C 195.697,104.913 190.197,105.58 185,107.5C 184.823,103.644 184.323,99.977 183.5,96.5C 182.833,96.5 182.167,96.5 181.5,96.5C 181.5,96.1667 181.5,95.8333 181.5,95.5C 182.675,95.719 183.675,95.3857 184.5,94.5C 185.348,92.5914 185.682,90.5914 185.5,88.5C 161.759,88.1773 138.092,88.5106 114.5,89.5C 114.5,84.5 114.5,79.5 114.5,74.5C 114.5,72.8333 114.5,71.1667 114.5,69.5C 145.167,69.5 175.833,69.5 206.5,69.5C 205.421,82.8661 204.087,96.1994 202.5,109.5 Z"/></g>
<g><path style="opacity:1" fill="#858585" d="M 264.5,64.5 C 264.5,66.5 264.5,68.5 264.5,70.5C 268.167,70.5 271.833,70.5 275.5,70.5C 275.5,73.1667 275.5,75.8333 275.5,78.5C 274.539,76.7354 274.205,74.7354 274.5,72.5C 270.5,72.5 266.5,72.5 262.5,72.5C 262.335,69.4816 262.502,66.4816 263,63.5C 263.383,64.056 263.883,64.3893 264.5,64.5 Z"/></g>
<g><path style="opacity:0.991" fill="#707070" d="M 317.5,70.5 C 318.043,70.56 318.376,70.8933 318.5,71.5C 315.914,72.48 313.247,72.8134 310.5,72.5C 310.795,74.7354 310.461,76.7354 309.5,78.5C 309.5,76.1667 309.5,73.8333 309.5,71.5C 312.385,71.8064 315.052,71.4731 317.5,70.5 Z"/></g>
<g><path style="opacity:0.734" fill="#6b6b6b" d="M 282.5,71.5 C 285.167,71.5 287.833,71.5 290.5,71.5C 288.393,72.4682 286.059,72.8016 283.5,72.5C 283.795,74.7354 283.461,76.7354 282.5,78.5C 282.5,76.1667 282.5,73.8333 282.5,71.5 Z"/></g>
<g><path style="opacity:0.94" fill="#595959" d="M 300.5,71.5 C 300.833,71.5 301.167,71.5 301.5,71.5C 301.298,73.9496 301.631,76.283 302.5,78.5C 300.656,76.7211 299.99,74.3878 300.5,71.5 Z"/></g>
<g><path style="opacity:0.712" fill="#9d351b" d="M 3.5,76.5 C 5.79558,84.1972 6.79558,92.1972 6.5,100.5C 4.92875,92.7094 3.92875,84.7094 3.5,76.5 Z"/></g>
<g><path style="opacity:1" fill="#1d6b96" d="M 222.5,83.5 C 272.051,82.8454 321.384,83.512 370.5,85.5C 370.5,85.8333 370.5,86.1667 370.5,86.5C 356.912,87.4813 343.246,87.8147 329.5,87.5C 316.511,86.9484 303.511,86.6151 290.5,86.5C 280.476,86.5015 270.809,87.1682 261.5,88.5C 258.833,88.5 256.167,88.5 253.5,88.5C 253.5,87.5 253.5,86.5 253.5,85.5C 242.833,85.5 232.167,85.5 221.5,85.5C 221.328,84.5084 221.662,83.8417 222.5,83.5 Z"/></g>
<g><path style="opacity:1" fill="#3a8db3" d="M 329.5,87.5 C 327.763,90.0121 325.263,91.0121 322,90.5C 318.221,88.9658 313.554,88.2991 308,88.5C 302.638,88.3804 297.471,89.0471 292.5,90.5C 282.242,88.7623 271.909,88.0956 261.5,88.5C 270.809,87.1682 280.476,86.5015 290.5,86.5C 303.511,86.6151 316.511,86.9484 329.5,87.5 Z"/></g>
<g><path style="opacity:1" fill="#e95b2c" d="M 114.5,74.5 C 114.5,79.5 114.5,84.5 114.5,89.5C 114.5,91.5 114.5,93.5 114.5,95.5C 93.1667,95.5 71.8333,95.5 50.5,95.5C 48.8333,95.5 47.1667,95.5 45.5,95.5C 44.7839,93.4437 44.1172,91.277 43.5,89C 66.831,88.5 90.1643,88.3334 113.5,88.5C 113.181,83.6367 113.514,78.97 114.5,74.5 Z"/></g>
<g><path style="opacity:1" fill="#43a8d6" d="M 370.5,86.5 C 370.5,88.1667 370.5,89.8333 370.5,91.5C 325.832,91.6667 281.165,91.5 236.5,91C 216.634,89.8015 216.8,88.9681 237,88.5C 243.724,88.6969 250.39,89.3635 257,90.5C 258.986,90.4313 260.486,89.7647 261.5,88.5C 271.909,88.0956 282.242,88.7623 292.5,90.5C 297.471,89.0471 302.638,88.3804 308,88.5C 313.554,88.2991 318.221,88.9658 322,90.5C 325.263,91.0121 327.763,90.0121 329.5,87.5C 343.246,87.8147 356.912,87.4813 370.5,86.5 Z"/></g>
<g><path style="opacity:1" fill="#f49649" d="M 181.5,95.5 C 159.167,95.5 136.833,95.5 114.5,95.5C 114.5,93.5 114.5,91.5 114.5,89.5C 138.092,88.5106 161.759,88.1773 185.5,88.5C 185.682,90.5914 185.348,92.5914 184.5,94.5C 183.675,95.3857 182.675,95.719 181.5,95.5 Z"/></g>
<g><path style="opacity:1" fill="#5b5351" d="M 50.5,95.5 C 71.8333,95.5 93.1667,95.5 114.5,95.5C 114.5,96.8333 114.5,98.1667 114.5,99.5C 93.1667,99.5 71.8333,99.5 50.5,99.5C 50.5,98.1667 50.5,96.8333 50.5,95.5 Z"/></g>
<g><path style="opacity:1" fill="#8c837c" d="M 114.5,95.5 C 136.833,95.5 159.167,95.5 181.5,95.5C 181.5,95.8333 181.5,96.1667 181.5,96.5C 181.768,98.099 181.434,99.4324 180.5,100.5C 158.673,99.5026 136.673,99.1693 114.5,99.5C 114.5,98.1667 114.5,96.8333 114.5,95.5 Z"/></g>
<g><path style="opacity:1" fill="#3192c2" d="M 221.5,85.5 C 232.167,85.5 242.833,85.5 253.5,85.5C 253.5,86.5 253.5,87.5 253.5,88.5C 256.167,88.5 258.833,88.5 261.5,88.5C 260.486,89.7647 258.986,90.4313 257,90.5C 250.39,89.3635 243.724,88.6969 237,88.5C 216.8,88.9681 216.634,89.8015 236.5,91C 281.165,91.5 325.832,91.6667 370.5,91.5C 370.5,93.8333 370.5,96.1667 370.5,98.5C 367.833,120.167 365.167,141.833 362.5,163.5C 361.732,162.737 361.232,161.737 361,160.5C 357.943,161.451 354.777,161.784 351.5,161.5C 351.665,158.15 351.498,154.817 351,151.5C 350.667,152.833 350.333,154.167 350,155.5C 349.145,165.582 347.811,175.582 346,185.5C 345.667,184.167 345.333,182.833 345,181.5C 343.249,182.174 341.583,182.507 340,182.5C 340.509,175.104 341.676,167.771 343.5,160.5C 343.333,159.833 343.167,159.167 343,158.5C 342.768,159.737 342.268,160.737 341.5,161.5C 344.712,143.634 348.379,125.967 352.5,108.5C 351.854,113.75 351.854,118.917 352.5,124C 350.844,125.797 349.844,127.964 349.5,130.5C 349.846,131.696 350.346,131.696 351,130.5C 351.333,132.167 351.667,133.833 352,135.5C 353.83,123.193 355.33,110.859 356.5,98.5C 334.825,98.5778 313.158,98.2445 291.5,97.5C 291.5,100.5 291.5,103.5 291.5,106.5C 277.323,106.171 263.323,106.504 249.5,107.5C 248.317,113.894 246.984,120.227 245.5,126.5C 236.5,126.5 227.5,126.5 218.5,126.5C 218.5,122.833 218.5,119.167 218.5,115.5C 218.974,105.429 219.974,95.4286 221.5,85.5 Z"/></g>
<g><path style="opacity:1" fill="#4fa5cd" d="M 352.5,108.5 C 318.337,107.502 284.004,107.168 249.5,107.5C 263.323,106.504 277.323,106.171 291.5,106.5C 291.5,103.5 291.5,100.5 291.5,97.5C 313.158,98.2445 334.825,98.5778 356.5,98.5C 355.33,110.859 353.83,123.193 352,135.5C 351.667,133.833 351.333,132.167 351,130.5C 350.346,131.696 349.846,131.696 349.5,130.5C 349.844,127.964 350.844,125.797 352.5,124C 351.854,118.917 351.854,113.75 352.5,108.5 Z"/></g>
<g><path style="opacity:1" fill="#a4a4a4" d="M 50.5,99.5 C 71.8333,99.5 93.1667,99.5 114.5,99.5C 93.5262,101.489 72.1928,102.156 50.5,101.5C 50.5,100.833 50.5,100.167 50.5,99.5 Z"/></g>
<g><path style="opacity:1" fill="#e8e7e8" d="M 114.5,99.5 C 136.673,99.1693 158.673,99.5026 180.5,100.5C 180.5,101.167 180.5,101.833 180.5,102.5C 158.575,103.489 136.575,103.822 114.5,103.5C 114.5,108.167 114.5,112.833 114.5,117.5C 101.989,117.171 89.6554,117.505 77.5,118.5C 77.5,118.833 77.5,119.167 77.5,119.5C 76.5655,120.568 76.2322,121.901 76.5,123.5C 77.2327,131.828 77.8994,140.161 78.5,148.5C 78.5,149.167 78.8333,149.5 79.5,149.5C 79.5,150.5 79.5,151.5 79.5,152.5C 84.9597,153.829 90.793,154.496 97,154.5C 103.207,154.496 109.04,153.829 114.5,152.5C 134.528,151.846 154.195,152.512 173.5,154.5C 154.067,156.469 134.4,157.136 114.5,156.5C 114.5,160.5 114.5,164.5 114.5,168.5C 95.1667,168.5 75.8333,168.5 56.5,168.5C 56.0729,161.468 55.4062,154.468 54.5,147.5C 53.2267,132.161 51.8934,116.828 50.5,101.5C 72.1928,102.156 93.5262,101.489 114.5,99.5 Z"/></g>
<g><path style="opacity:1" fill="#f4f4f5" d="M 180.5,102.5 C 180.5,105.167 180.5,107.833 180.5,110.5C 179.532,112.607 179.198,114.941 179.5,117.5C 157.833,117.5 136.167,117.5 114.5,117.5C 114.5,112.833 114.5,108.167 114.5,103.5C 136.575,103.822 158.575,103.489 180.5,102.5 Z"/></g>
<g><path style="opacity:1" fill="#fcfdfd" d="M 249.5,107.5 C 284.004,107.168 318.337,107.502 352.5,108.5C 348.379,125.967 344.712,143.634 341.5,161.5C 339.039,173.806 336.706,186.139 334.5,198.5C 316.055,204.031 297.722,210.031 279.5,216.5C 277.271,215.423 274.937,214.756 272.5,214.5C 259.317,208.99 245.984,203.657 232.5,198.5C 233.077,190.041 234.41,181.707 236.5,173.5C 243.167,173.5 249.833,173.5 256.5,173.5C 255.54,177.195 255.54,180.861 256.5,184.5C 265.23,188.132 274.064,191.465 283,194.5C 286.29,193.792 289.456,192.792 292.5,191.5C 300.707,188.931 308.874,186.264 317,183.5C 318.216,176.483 319.383,169.483 320.5,162.5C 321.043,162.44 321.376,162.107 321.5,161.5C 294.175,160.5 266.841,160.167 239.5,160.5C 239.5,159.167 239.5,157.833 239.5,156.5C 240.961,151.194 242.294,145.861 243.5,140.5C 270.833,140.5 298.167,140.5 325.5,140.5C 325.911,136.779 326.578,133.112 327.5,129.5C 300.349,127.836 273.015,126.836 245.5,126.5C 246.984,120.227 248.317,113.894 249.5,107.5 Z"/></g>
<g><path style="opacity:1" fill="#af370b" d="M 181.5,96.5 C 182.167,96.5 182.833,96.5 183.5,96.5C 183.71,103.222 183.21,109.888 182,116.5C 181.667,116.833 181.333,117.167 181,117.5C 180.503,115.19 180.337,112.857 180.5,110.5C 180.5,107.833 180.5,105.167 180.5,102.5C 180.5,101.833 180.5,101.167 180.5,100.5C 181.434,99.4324 181.768,98.099 181.5,96.5 Z"/></g>
<g><path style="opacity:1" fill="#a22a09" d="M 45.5,95.5 C 47.1667,95.5 48.8333,95.5 50.5,95.5C 50.5,96.8333 50.5,98.1667 50.5,99.5C 50.5,100.167 50.5,100.833 50.5,101.5C 51.8934,116.828 53.2267,132.161 54.5,147.5C 53.6862,145.369 53.1862,143.036 53,140.5C 51.9887,139.663 50.8221,139.33 49.5,139.5C 48.0356,124.855 46.7023,110.189 45.5,95.5 Z"/></g>
<g><path style="opacity:1" fill="#fdbd49" d="M 77.5,118.5 C 111.173,118.167 144.84,118.5 178.5,119.5C 144.933,120.17 111.433,120.837 78,121.5C 77.5357,120.906 77.369,120.239 77.5,119.5C 77.5,119.167 77.5,118.833 77.5,118.5 Z"/></g>
<g><path style="opacity:1" fill="#fdc762" d="M 77.5,118.5 C 89.6554,117.505 101.989,117.171 114.5,117.5C 136.167,117.5 157.833,117.5 179.5,117.5C 179.877,119.258 180.544,120.925 181.5,122.5C 179.604,123.466 177.604,123.799 175.5,123.5C 173.031,122.683 170.365,122.183 167.5,122C 144.833,121.333 122.167,121.333 99.5,122C 96.9644,122.186 94.631,122.686 92.5,123.5C 87.1667,123.5 81.8333,123.5 76.5,123.5C 76.2322,121.901 76.5655,120.568 77.5,119.5C 77.369,120.239 77.5357,120.906 78,121.5C 111.433,120.837 144.933,120.17 178.5,119.5C 144.84,118.5 111.173,118.167 77.5,118.5 Z"/></g>
<g><path style="opacity:1" fill="#fee5ba" d="M 175.5,123.5 C 155.167,123.5 134.833,123.5 114.5,123.5C 107.167,123.5 99.8333,123.5 92.5,123.5C 94.631,122.686 96.9644,122.186 99.5,122C 122.167,121.333 144.833,121.333 167.5,122C 170.365,122.183 173.031,122.683 175.5,123.5 Z"/></g>
<g><path style="opacity:1" fill="#e75127" d="M 76.5,123.5 C 81.8333,123.5 87.1667,123.5 92.5,123.5C 99.8333,123.5 107.167,123.5 114.5,123.5C 114.5,128.833 114.5,134.167 114.5,139.5C 114.5,142.5 114.5,145.5 114.5,148.5C 102.5,148.5 90.5,148.5 78.5,148.5C 77.8994,140.161 77.2327,131.828 76.5,123.5 Z"/></g>
<g><path style="opacity:0.999" fill="#2e88b6" d="M 218.5,115.5 C 218.5,119.167 218.5,122.833 218.5,126.5C 227.5,126.5 236.5,126.5 245.5,126.5C 273.015,126.836 300.349,127.836 327.5,129.5C 315.5,129.5 303.5,129.5 291.5,129.5C 291.5,132.833 291.5,136.167 291.5,139.5C 275.325,139.17 259.325,139.504 243.5,140.5C 242.294,145.861 240.961,151.194 239.5,156.5C 239.649,155.448 239.483,154.448 239,153.5C 238.667,154.833 238.333,156.167 238,157.5C 232.928,156.529 227.762,156.195 222.5,156.5C 222.371,158.216 222.038,159.883 221.5,161.5C 220.227,152.159 218.893,142.825 217.5,133.5C 217.177,127.31 217.51,121.31 218.5,115.5 Z"/></g>
<g><path style="opacity:1" fill="#4399c3" d="M 327.5,129.5 C 326.578,133.112 325.911,136.779 325.5,140.5C 298.167,140.5 270.833,140.5 243.5,140.5C 259.325,139.504 275.325,139.17 291.5,139.5C 291.5,136.167 291.5,132.833 291.5,129.5C 303.5,129.5 315.5,129.5 327.5,129.5 Z"/></g>
<g><path style="opacity:1" fill="#f1763a" d="M 183.5,96.5 C 184.323,99.977 184.823,103.644 185,107.5C 190.197,105.58 195.697,104.913 201.5,105.5C 201.232,107.099 201.566,108.432 202.5,109.5C 201.313,121.182 199.98,132.849 198.5,144.5C 197.566,143.432 197.232,142.099 197.5,140.5C 191.833,140.5 186.167,140.5 180.5,140.5C 180.802,143.059 180.468,145.393 179.5,147.5C 179.5,144.833 179.5,142.167 179.5,139.5C 157.833,139.5 136.167,139.5 114.5,139.5C 114.5,134.167 114.5,128.833 114.5,123.5C 134.833,123.5 155.167,123.5 175.5,123.5C 177.604,123.799 179.604,123.466 181.5,122.5C 180.544,120.925 179.877,119.258 179.5,117.5C 179.198,114.941 179.532,112.607 180.5,110.5C 180.337,112.857 180.503,115.19 181,117.5C 181.333,117.167 181.667,116.833 182,116.5C 183.21,109.888 183.71,103.222 183.5,96.5 Z"/></g>
<g><path style="opacity:0.176" fill="#9b3218" d="M 7.5,113.5 C 8.62064,115.954 9.45397,118.621 10,121.5C 10.3981,127.342 10.8981,133.176 11.5,139C 11.4915,140.707 11.1582,142.207 10.5,143.5C 9.66456,133.483 8.66456,123.483 7.5,113.5 Z"/></g>
<g><path style="opacity:1" fill="#ee853e" d="M 114.5,139.5 C 136.167,139.5 157.833,139.5 179.5,139.5C 179.5,142.167 179.5,144.833 179.5,147.5C 177.833,148.167 176.167,148.833 174.5,149.5C 142.833,149.5 111.167,149.5 79.5,149.5C 78.8333,149.5 78.5,149.167 78.5,148.5C 90.5,148.5 102.5,148.5 114.5,148.5C 114.5,145.5 114.5,142.5 114.5,139.5 Z"/></g>
<g><path style="opacity:1" fill="#555859" d="M 79.5,149.5 C 111.167,149.5 142.833,149.5 174.5,149.5C 174.5,150.167 174.5,150.833 174.5,151.5C 154.326,151.17 134.326,151.503 114.5,152.5C 102.833,152.5 91.1667,152.5 79.5,152.5C 79.5,151.5 79.5,150.5 79.5,149.5 Z"/></g>
<g><path style="opacity:0.727" fill="#933215" d="M 11.5,146.5 C 13.1776,151.568 13.8443,156.902 13.5,162.5C 12.1937,157.384 11.527,152.051 11.5,146.5 Z"/></g>
<g><path style="opacity:1" fill="#c23f15" d="M 49.5,139.5 C 50.8221,139.33 51.9887,139.663 53,140.5C 53.1862,143.036 53.6862,145.369 54.5,147.5C 55.4062,154.468 56.0729,161.468 56.5,168.5C 56.0248,170.784 55.0248,172.784 53.5,174.5C 53.1667,174.5 52.8333,174.5 52.5,174.5C 52.302,167.782 51.6353,161.115 50.5,154.5C 50.2491,149.493 49.9157,144.493 49.5,139.5 Z"/></g>
<g><path style="opacity:1" fill="#989594" d="M 114.5,152.5 C 134.326,151.503 154.326,151.17 174.5,151.5C 174.784,153.415 174.451,155.081 173.5,156.5C 173.5,155.833 173.5,155.167 173.5,154.5C 154.195,152.512 134.528,151.846 114.5,152.5 Z"/></g>
<g><path style="opacity:1" fill="#a9a9aa" d="M 79.5,152.5 C 91.1667,152.5 102.833,152.5 114.5,152.5C 109.04,153.829 103.207,154.496 97,154.5C 90.793,154.496 84.9597,153.829 79.5,152.5 Z"/></g>
<g><path style="opacity:1" fill="#f3f3f4" d="M 173.5,154.5 C 173.5,155.167 173.5,155.833 173.5,156.5C 171.089,178.125 169.089,199.792 167.5,221.5C 156.27,224.055 145.27,227.055 134.5,230.5C 128.545,231.958 122.545,233.291 116.5,234.5C 115.127,234.657 113.793,234.49 112.5,234C 114.291,231.894 114.958,229.394 114.5,226.5C 124.351,224.565 134.017,222.065 143.5,219C 144.423,216.959 144.756,214.792 144.5,212.5C 144.5,211.833 144.5,211.167 144.5,210.5C 144.5,209.833 144.5,209.167 144.5,208.5C 144.5,208.167 144.5,207.833 144.5,207.5C 145.947,197.355 146.947,187.021 147.5,176.5C 147.5,176.167 147.5,175.833 147.5,175.5C 147.737,174.209 147.404,173.209 146.5,172.5C 146.461,171.417 146.127,170.417 145.5,169.5C 135.188,168.501 124.855,168.168 114.5,168.5C 114.5,164.5 114.5,160.5 114.5,156.5C 134.4,157.136 154.067,156.469 173.5,154.5 Z"/></g>
<g><path style="opacity:0.38" fill="#712812" d="M 214.5,152.5 C 214.833,152.5 215.167,152.5 215.5,152.5C 215.167,155.833 214.833,159.167 214.5,162.5C 213.556,159.332 213.556,155.999 214.5,152.5 Z"/></g>
<g><path style="opacity:1" fill="#768993" d="M 239.5,160.5 C 266.841,160.167 294.175,160.5 321.5,161.5C 321.376,162.107 321.043,162.44 320.5,162.5C 293.5,161.833 266.5,161.167 239.5,160.5 Z"/></g>
<g><path style="opacity:0.998" fill="#237dad" d="M 239.5,156.5 C 239.5,157.833 239.5,159.167 239.5,160.5C 266.5,161.167 293.5,161.833 320.5,162.5C 310.833,162.5 301.167,162.5 291.5,162.5C 291.194,172.25 291.527,181.916 292.5,191.5C 289.456,192.792 286.29,193.792 283,194.5C 274.064,191.465 265.23,188.132 256.5,184.5C 255.54,180.861 255.54,177.195 256.5,173.5C 249.833,173.5 243.167,173.5 236.5,173.5C 234.41,181.707 233.077,190.041 232.5,198.5C 230.952,198.179 230.285,197.179 230.5,195.5C 229.167,195.5 227.833,195.5 226.5,195.5C 226.806,198.385 226.473,201.052 225.5,203.5C 224.002,189.516 222.669,175.516 221.5,161.5C 222.038,159.883 222.371,158.216 222.5,156.5C 227.762,156.195 232.928,156.529 238,157.5C 238.333,156.167 238.667,154.833 239,153.5C 239.483,154.448 239.649,155.448 239.5,156.5 Z"/></g>
<g><path style="opacity:1" fill="#f06327" d="M 198.5,144.5 C 198.5,146.167 198.5,147.833 198.5,149.5C 197.039,158.442 196.039,167.442 195.5,176.5C 189.636,175.229 183.802,175.229 178,176.5C 176.961,175.756 176.461,174.756 176.5,173.5C 176.903,165.475 177.569,157.475 178.5,149.5C 177.167,149.5 175.833,149.5 174.5,149.5C 176.167,148.833 177.833,148.167 179.5,147.5C 180.468,145.393 180.802,143.059 180.5,140.5C 186.167,140.5 191.833,140.5 197.5,140.5C 197.232,142.099 197.566,143.432 198.5,144.5 Z"/></g>
<g><path style="opacity:1" fill="#e34115" d="M 50.5,154.5 C 51.6353,161.115 52.302,167.782 52.5,174.5C 72.8063,176.488 93.473,177.155 114.5,176.5C 114.5,184.167 114.5,191.833 114.5,199.5C 114.173,204.544 114.506,209.544 115.5,214.5C 124.147,211.895 132.814,209.395 141.5,207C 142.973,206.29 143.64,205.124 143.5,203.5C 144.434,204.568 144.768,205.901 144.5,207.5C 144.5,207.833 144.5,208.167 144.5,208.5C 134.34,210.54 124.34,213.207 114.5,216.5C 104.481,213.829 94.4809,211.162 84.5,208.5C 84.0297,202.794 83.363,197.127 82.5,191.5C 82.5,190.5 82.5,189.5 82.5,188.5C 74.6841,187.508 66.6841,187.174 58.5,187.5C 57.1667,187.5 55.8333,187.5 54.5,187.5C 54.5,190.833 54.5,194.167 54.5,197.5C 43.1667,197.5 31.8333,197.5 20.5,197.5C 20.5,199.167 20.5,200.833 20.5,202.5C 18.1177,186.045 16.451,169.379 15.5,152.5C 26.505,152.333 37.505,152.5 48.5,153C 49.0442,153.717 49.7109,154.217 50.5,154.5 Z"/></g>
<g><path style="opacity:1" fill="#f8a049" d="M 56.5,168.5 C 75.8333,168.5 95.1667,168.5 114.5,168.5C 124.855,168.168 135.188,168.501 145.5,169.5C 146.127,170.417 146.461,171.417 146.5,172.5C 146.03,173.693 145.03,174.36 143.5,174.5C 141.133,174.158 138.8,173.658 136.5,173C 112.14,172.094 87.8067,172.428 63.5,174C 62.944,174.383 62.6107,174.883 62.5,175.5C 59.2869,175.81 56.2869,175.477 53.5,174.5C 55.0248,172.784 56.0248,170.784 56.5,168.5 Z"/></g>
<g><path style="opacity:1" fill="#3c89b1" d="M 320.5,162.5 C 319.383,169.483 318.216,176.483 317,183.5C 308.874,186.264 300.707,188.931 292.5,191.5C 291.527,181.916 291.194,172.25 291.5,162.5C 301.167,162.5 310.833,162.5 320.5,162.5 Z"/></g>
<g><path style="opacity:1" fill="#fbb661" d="M 146.5,172.5 C 147.404,173.209 147.737,174.209 147.5,175.5C 140.833,175.5 134.167,175.5 127.5,175.5C 127.389,174.883 127.056,174.383 126.5,174C 110.833,173.333 95.1667,173.333 79.5,174C 80.056,174.383 80.3893,174.883 80.5,175.5C 74.5,175.5 68.5,175.5 62.5,175.5C 62.6107,174.883 62.944,174.383 63.5,174C 87.8067,172.428 112.14,172.094 136.5,173C 138.8,173.658 141.133,174.158 143.5,174.5C 145.03,174.36 146.03,173.693 146.5,172.5 Z"/></g>
<g><path style="opacity:1" fill="#fdd5a1" d="M 127.5,175.5 C 111.833,175.5 96.1667,175.5 80.5,175.5C 80.3893,174.883 80.056,174.383 79.5,174C 95.1667,173.333 110.833,173.333 126.5,174C 127.056,174.383 127.389,174.883 127.5,175.5 Z"/></g>
<g><path style="opacity:1" fill="#ef7237" d="M 52.5,174.5 C 52.8333,174.5 53.1667,174.5 53.5,174.5C 56.2869,175.477 59.2869,175.81 62.5,175.5C 68.5,175.5 74.5,175.5 80.5,175.5C 96.1667,175.5 111.833,175.5 127.5,175.5C 134.167,175.5 140.833,175.5 147.5,175.5C 147.5,175.833 147.5,176.167 147.5,176.5C 136.5,176.5 125.5,176.5 114.5,176.5C 93.473,177.155 72.8063,176.488 52.5,174.5 Z"/></g>
<g><path style="opacity:1" fill="#2c7da9" d="M 362.5,163.5 C 360.5,184.5 358.5,205.5 356.5,226.5C 355.837,224.359 355.503,222.025 355.5,219.5C 356.168,212.828 356.835,206.161 357.5,199.5C 349.703,198.81 346.203,194.477 347,186.5C 345.358,195.109 344.192,203.776 343.5,212.5C 339.379,208.36 334.712,204.86 329.5,202C 331.346,200.97 333.013,199.804 334.5,198.5C 336.706,186.139 339.039,173.806 341.5,161.5C 342.268,160.737 342.768,159.737 343,158.5C 343.167,159.167 343.333,159.833 343.5,160.5C 341.676,167.771 340.509,175.104 340,182.5C 341.583,182.507 343.249,182.174 345,181.5C 345.333,182.833 345.667,184.167 346,185.5C 347.811,175.582 349.145,165.582 350,155.5C 350.333,154.167 350.667,152.833 351,151.5C 351.498,154.817 351.665,158.15 351.5,161.5C 354.777,161.784 357.943,161.451 361,160.5C 361.232,161.737 361.732,162.737 362.5,163.5 Z"/></g>
<g><path style="opacity:1" fill="#494949" d="M 82.5,188.5 C 82.5,189.5 82.5,190.5 82.5,191.5C 74.8333,191.5 67.1667,191.5 59.5,191.5C 59.5,190.5 59.5,189.5 59.5,188.5C 67.1667,188.5 74.8333,188.5 82.5,188.5 Z"/></g>
<g><path style="opacity:1" fill="#f0611c" d="M 114.5,176.5 C 125.5,176.5 136.5,176.5 147.5,176.5C 146.947,187.021 145.947,197.355 144.5,207.5C 144.768,205.901 144.434,204.568 143.5,203.5C 143.5,201.833 143.5,200.167 143.5,198.5C 133.75,198.194 124.084,198.527 114.5,199.5C 114.5,191.833 114.5,184.167 114.5,176.5 Z"/></g>
<g><path style="opacity:1" fill="#af3c10" d="M 174.5,149.5 C 175.833,149.5 177.167,149.5 178.5,149.5C 177.569,157.475 176.903,165.475 176.5,173.5C 174.378,185.935 173.045,198.601 172.5,211.5C 171.67,216.807 171.003,222.141 170.5,227.5C 168.992,225.819 167.992,223.819 167.5,221.5C 169.089,199.792 171.089,178.125 173.5,156.5C 174.451,155.081 174.784,153.415 174.5,151.5C 174.5,150.833 174.5,150.167 174.5,149.5 Z"/></g>
<g><path style="opacity:0.169" fill="#8c3015" d="M 15.5,188.5 C 16.7479,189.334 17.4146,190.667 17.5,192.5C 18.201,196.808 18.5343,201.141 18.5,205.5C 17.4254,199.941 16.4254,194.274 15.5,188.5 Z"/></g>
<g><path style="opacity:1" fill="#e7e6e6" d="M 59.5,191.5 C 67.1667,191.5 74.8333,191.5 82.5,191.5C 83.363,197.127 84.0297,202.794 84.5,208.5C 84.8333,209.833 85.1667,211.167 85.5,212.5C 85.5,213.167 85.5,213.833 85.5,214.5C 85.5,215.5 85.5,216.5 85.5,217.5C 94.9467,219.407 104.28,221.741 113.5,224.5C 121.631,219.066 130.631,215.899 140.5,215C 142.133,214.52 143.466,213.687 144.5,212.5C 144.756,214.792 144.423,216.959 143.5,219C 134.017,222.065 124.351,224.565 114.5,226.5C 114.958,229.394 114.291,231.894 112.5,234C 113.793,234.49 115.127,234.657 116.5,234.5C 115.903,235.139 115.07,235.472 114,235.5C 107.779,233.904 101.613,232.237 95.5,230.5C 84.5721,227.303 73.5721,224.303 62.5,221.5C 61.7926,211.467 60.7926,201.467 59.5,191.5 Z"/></g>
<g><path style="opacity:1" fill="#eb5214" d="M 176.5,173.5 C 176.461,174.756 176.961,175.756 178,176.5C 183.802,175.229 189.636,175.229 195.5,176.5C 194.249,188.176 192.916,199.842 191.5,211.5C 185.167,211.5 178.833,211.5 172.5,211.5C 173.045,198.601 174.378,185.935 176.5,173.5 Z"/></g>
<g><path style="opacity:1" fill="#f26e16" d="M 143.5,203.5 C 143.64,205.124 142.973,206.29 141.5,207C 132.814,209.395 124.147,211.895 115.5,214.5C 114.506,209.544 114.173,204.544 114.5,199.5C 124.084,198.527 133.75,198.194 143.5,198.5C 143.5,200.167 143.5,201.833 143.5,203.5 Z"/></g>
<g><path style="opacity:1" fill="#316b8b" d="M 334.5,198.5 C 333.013,199.804 331.346,200.97 329.5,202C 334.712,204.86 339.379,208.36 343.5,212.5C 343.116,216.747 342.449,220.914 341.5,225C 324.928,229.614 308.261,233.78 291.5,237.5C 291.5,229.833 291.5,222.167 291.5,214.5C 287.414,215.083 283.414,216.083 279.5,217.5C 276.824,217.061 274.491,216.061 272.5,214.5C 274.937,214.756 277.271,215.423 279.5,216.5C 297.722,210.031 316.055,204.031 334.5,198.5 Z"/></g>
<g><path style="opacity:0.455" fill="#933219" d="M 211.5,189.5 C 210.998,198.032 209.998,206.366 208.5,214.5C 208.272,205.875 209.272,197.542 211.5,189.5 Z"/></g>
<g><path style="opacity:1" fill="#1c6995" d="M 356.5,226.5 C 355.906,230.508 355.24,234.508 354.5,238.5C 349.745,240.194 345.078,241.861 340.5,243.5C 338.194,243.993 335.861,244.326 333.5,244.5C 337.607,242.968 341.607,241.135 345.5,239C 345.167,238.667 344.833,238.333 344.5,238C 345.802,235.787 346.802,233.454 347.5,231C 345.787,225.116 344.454,218.949 343.5,212.5C 344.192,203.776 345.358,195.109 347,186.5C 346.203,194.477 349.703,198.81 357.5,199.5C 356.835,206.161 356.168,212.828 355.5,219.5C 355.503,222.025 355.837,224.359 356.5,226.5 Z"/></g>
<g><path style="opacity:1" fill="#d83b12" d="M 214.5,152.5 C 213.556,155.999 213.556,159.332 214.5,162.5C 213.427,171.49 212.427,180.49 211.5,189.5C 209.272,197.542 208.272,205.875 208.5,214.5C 207.574,230.908 205.907,247.241 203.5,263.5C 197.196,265.326 190.863,266.992 184.5,268.5C 166.968,273.3 149.301,277.633 131.5,281.5C 137.96,279.07 144.627,276.903 151.5,275C 168.633,271.011 185.633,266.844 202.5,262.5C 203.18,255.801 203.18,249.134 202.5,242.5C 204.138,236.729 205.138,230.229 205.5,223C 205.333,222.5 205.167,222 205,221.5C 200.667,222.833 196.333,222.833 192,221.5C 191.768,222.737 191.268,223.737 190.5,224.5C 191.2,220.202 191.533,215.869 191.5,211.5C 192.916,199.842 194.249,188.176 195.5,176.5C 196.039,167.442 197.039,158.442 198.5,149.5C 200.655,148.448 200.988,149.114 199.5,151.5C 204.12,152.493 208.786,152.827 213.5,152.5C 213.833,144.5 214.167,144.5 214.5,152.5 Z"/></g>
<g><path style="opacity:1" fill="#ba4315" d="M 58.5,187.5 C 66.6841,187.174 74.6841,187.508 82.5,188.5C 74.8333,188.5 67.1667,188.5 59.5,188.5C 59.5,189.5 59.5,190.5 59.5,191.5C 60.7926,201.467 61.7926,211.467 62.5,221.5C 61.5,222.833 60.5,224.167 59.5,225.5C 56.9974,213.31 55.6641,200.976 55.5,188.5C 56.791,188.737 57.791,188.404 58.5,187.5 Z"/></g>
<g><path style="opacity:1" fill="#63605f" d="M 84.5,208.5 C 94.4809,211.162 104.481,213.829 114.5,216.5C 124.34,213.207 134.34,210.54 144.5,208.5C 144.5,209.167 144.5,209.833 144.5,210.5C 134.911,213.148 125.244,215.648 115.5,218C 114.944,218.383 114.611,218.883 114.5,219.5C 105.075,216.545 95.4082,214.211 85.5,212.5C 85.1667,211.167 84.8333,209.833 84.5,208.5 Z"/></g>
<g><path style="opacity:1" fill="#b9b9b9" d="M 144.5,210.5 C 144.5,211.167 144.5,211.833 144.5,212.5C 143.466,213.687 142.133,214.52 140.5,215C 130.631,215.899 121.631,219.066 113.5,224.5C 104.28,221.741 94.9467,219.407 85.5,217.5C 85.5,216.5 85.5,215.5 85.5,214.5C 94.3991,217.151 103.399,219.485 112.5,221.5C 113.713,221.253 114.38,220.586 114.5,219.5C 114.611,218.883 114.944,218.383 115.5,218C 125.244,215.648 134.911,213.148 144.5,210.5 Z"/></g>
<g><path style="opacity:1" fill="#909091" d="M 85.5,212.5 C 95.4082,214.211 105.075,216.545 114.5,219.5C 114.38,220.586 113.713,221.253 112.5,221.5C 103.399,219.485 94.3991,217.151 85.5,214.5C 85.5,213.833 85.5,213.167 85.5,212.5 Z"/></g>
<g><path style="opacity:1" fill="#e14001" d="M 172.5,211.5 C 178.833,211.5 185.167,211.5 191.5,211.5C 191.533,215.869 191.2,220.202 190.5,224.5C 189.784,233.186 188.784,241.853 187.5,250.5C 163.135,256.176 138.802,262.176 114.5,268.5C 114.5,260.167 114.5,251.833 114.5,243.5C 121.833,241.5 129.166,239.5 136.5,237.5C 142.779,235.68 149.112,234.013 155.5,232.5C 160.764,231.412 165.764,229.745 170.5,227.5C 171.003,222.141 171.67,216.807 172.5,211.5 Z"/></g>
<g><path style="opacity:1" fill="#cb2e02" d="M 58.5,187.5 C 57.791,188.404 56.791,188.737 55.5,188.5C 55.6641,200.976 56.9974,213.31 59.5,225.5C 59.4142,226.496 59.7476,227.329 60.5,228C 67.2503,229.648 73.917,231.481 80.5,233.5C 82.7457,234.455 85.079,235.122 87.5,235.5C 96.4782,238.164 105.478,240.831 114.5,243.5C 114.5,251.833 114.5,260.167 114.5,268.5C 138.802,262.176 163.135,256.176 187.5,250.5C 188.784,241.853 189.784,233.186 190.5,224.5C 191.268,223.737 191.768,222.737 192,221.5C 196.333,222.833 200.667,222.833 205,221.5C 205.167,222 205.333,222.5 205.5,223C 205.138,230.229 204.138,236.729 202.5,242.5C 203.18,249.134 203.18,255.801 202.5,262.5C 185.633,266.844 168.633,271.011 151.5,275C 144.627,276.903 137.96,279.07 131.5,281.5C 126.231,283.531 120.731,285.198 115,286.5C 92.0515,280.792 69.2182,274.792 46.5,268.5C 39.2414,266.519 31.9081,264.852 24.5,263.5C 24.5,262.167 24.5,260.833 24.5,259.5C 24.8718,253.57 24.2051,247.903 22.5,242.5C 22.5,242.167 22.5,241.833 22.5,241.5C 23.0803,237.351 22.4136,233.684 20.5,230.5C 20.5,229.5 20.5,228.5 20.5,227.5C 21.0471,223.022 21.0471,218.355 20.5,213.5C 20.5,209.833 20.5,206.167 20.5,202.5C 20.5,200.833 20.5,199.167 20.5,197.5C 31.8333,197.5 43.1667,197.5 54.5,197.5C 54.5,194.167 54.5,190.833 54.5,187.5C 55.8333,187.5 57.1667,187.5 58.5,187.5 Z"/></g>
<g><path style="opacity:0.729" fill="#9e361c" d="M 18.5,209.5 C 19.1667,210.833 19.8333,212.167 20.5,213.5C 21.0471,218.355 21.0471,223.022 20.5,227.5C 19.5056,221.544 18.8389,215.544 18.5,209.5 Z"/></g>
<g><path style="opacity:1" fill="#1a6c9c" d="M 232.5,198.5 C 245.984,203.657 259.317,208.99 272.5,214.5C 274.491,216.061 276.824,217.061 279.5,217.5C 283.414,216.083 287.414,215.083 291.5,214.5C 291.5,222.167 291.5,229.833 291.5,237.5C 291.5,243.167 291.5,248.833 291.5,254.5C 302.148,251.838 312.814,249.171 323.5,246.5C 324.416,246.543 325.083,246.876 325.5,247.5C 314.019,250.245 302.519,252.912 291,255.5C 274.351,251.713 257.851,247.38 241.5,242.5C 237.584,241.188 233.584,240.188 229.5,239.5C 228.385,227.469 227.052,215.469 225.5,203.5C 226.473,201.052 226.806,198.385 226.5,195.5C 227.833,195.5 229.167,195.5 230.5,195.5C 230.285,197.179 230.952,198.179 232.5,198.5 Z"/></g>
<g><path style="opacity:1" fill="#f48037" d="M 167.5,221.5 C 167.992,223.819 168.992,225.819 170.5,227.5C 165.764,229.745 160.764,231.412 155.5,232.5C 148.5,231.833 141.5,231.167 134.5,230.5C 145.27,227.055 156.27,224.055 167.5,221.5 Z"/></g>
<g><path style="opacity:1" fill="#f47f33" d="M 62.5,221.5 C 73.5721,224.303 84.5721,227.303 95.5,230.5C 90.4429,231.173 85.4429,232.173 80.5,233.5C 73.917,231.481 67.2503,229.648 60.5,228C 59.7476,227.329 59.4142,226.496 59.5,225.5C 60.5,224.167 61.5,222.833 62.5,221.5 Z"/></g>
<g><path style="opacity:0.42" fill="#842e18" d="M 20.5,230.5 C 22.4136,233.684 23.0803,237.351 22.5,241.5C 21.5975,238.003 20.9309,234.337 20.5,230.5 Z"/></g>
<g><path style="opacity:1" fill="#f7953f" d="M 95.5,230.5 C 101.613,232.237 107.779,233.904 114,235.5C 115.07,235.472 115.903,235.139 116.5,234.5C 122.545,233.291 128.545,231.958 134.5,230.5C 141.5,231.167 148.5,231.833 155.5,232.5C 149.112,234.013 142.779,235.68 136.5,237.5C 128.981,235.861 121.648,236.861 114.5,240.5C 108.137,238.768 101.804,236.935 95.5,235C 92.633,234.199 89.9664,234.366 87.5,235.5C 85.079,235.122 82.7457,234.455 80.5,233.5C 85.4429,232.173 90.4429,231.173 95.5,230.5 Z"/></g>
<g><path style="opacity:1" fill="#f9b26b" d="M 87.5,235.5 C 89.9664,234.366 92.633,234.199 95.5,235C 101.804,236.935 108.137,238.768 114.5,240.5C 121.648,236.861 128.981,235.861 136.5,237.5C 129.166,239.5 121.833,241.5 114.5,243.5C 105.478,240.831 96.4782,238.164 87.5,235.5 Z"/></g>
<g><path style="opacity:1" fill="#135982" d="M 343.5,212.5 C 344.454,218.949 345.787,225.116 347.5,231C 346.802,233.454 345.802,235.787 344.5,238C 344.833,238.333 345.167,238.667 345.5,239C 341.607,241.135 337.607,242.968 333.5,244.5C 330.919,245.488 328.252,246.488 325.5,247.5C 325.083,246.876 324.416,246.543 323.5,246.5C 312.814,249.171 302.148,251.838 291.5,254.5C 291.5,248.833 291.5,243.167 291.5,237.5C 308.261,233.78 324.928,229.614 341.5,225C 342.449,220.914 343.116,216.747 343.5,212.5 Z"/></g>
<g><path style="opacity:0.107" fill="#000000" d="M 241.5,242.5 C 257.851,247.38 274.351,251.713 291,255.5C 302.519,252.912 314.019,250.245 325.5,247.5C 328.252,246.488 330.919,245.488 333.5,244.5C 335.861,244.326 338.194,243.993 340.5,243.5C 348.118,244.094 354.618,247.094 360,252.5C 360.539,256.59 359.039,259.757 355.5,262C 349.153,264.844 342.487,266.844 335.5,268C 320.673,268.972 305.84,269.805 291,270.5C 271.327,270.121 251.827,268.288 232.5,265C 230.779,263.473 228.779,262.473 226.5,262C 220.706,256.222 221.372,251.222 228.5,247C 232.75,244.856 237.083,243.356 241.5,242.5 Z"/></g>
<g><path style="opacity:0.157" fill="#9f361a" d="M 22.5,242.5 C 24.2051,247.903 24.8718,253.57 24.5,259.5C 23.1164,254.056 22.4497,248.389 22.5,242.5 Z"/></g>
<g><path style="opacity:0.111" fill="#000000" d="M 46.5,268.5 C 69.2182,274.792 92.0515,280.792 115,286.5C 120.731,285.198 126.231,283.531 131.5,281.5C 149.301,277.633 166.968,273.3 184.5,268.5C 196.422,269.723 208.089,272.557 219.5,277C 228.833,283 228.833,289 219.5,295C 214.898,296.867 210.232,298.534 205.5,300C 189.467,302.832 173.467,304.665 157.5,305.5C 129.5,305.5 101.5,305.5 73.5,305.5C 57.5373,304.613 41.5373,302.78 25.5,300C 18.2273,298.28 11.7273,295.113 6,290.5C 4.62703,288.305 4.2937,285.971 5,283.5C 10.6888,277.234 17.8555,273.401 26.5,272C 33.2566,270.502 39.9233,269.335 46.5,268.5 Z"/></g>
</svg>
