<?xml version="1.0" encoding="UTF-8"?>
<!DOCTYPE svg PUBLIC "-//W3C//DTD SVG 1.1//EN" "http://www.w3.org/Graphics/SVG/1.1/DTD/svg11.dtd">
<svg xmlns="http://www.w3.org/2000/svg" version="1.1" width="512px" height="512px" style="shape-rendering:geometricPrecision; text-rendering:geometricPrecision; image-rendering:optimizeQuality; fill-rule:evenodd; clip-rule:evenodd" xmlns:xlink="http://www.w3.org/1999/xlink">
<g><path style="opacity:0.972" fill="#000000" d="M -0.5,387.5 C -0.5,299.5 -0.5,211.5 -0.5,123.5C 7.53307,85.6331 30.5331,62.4664 68.5,54C 153.15,52.3665 237.817,52.0331 322.5,53C 334.438,53.1514 345.772,55.8181 356.5,61C 360.542,64.8774 361.375,69.3774 359,74.5C 353.136,80.699 346.969,86.5323 340.5,92C 253.215,90.374 165.882,90.0407 78.5,91C 54.2042,94.9624 40.3708,109.129 37,133.5C 36.022,217.523 36.3553,301.523 38,385.5C 44.1537,405.656 57.6537,417.156 78.5,420C 160.5,420.667 242.5,420.667 324.5,420C 348.37,416.13 362.203,402.297 366,378.5C 366.333,363.833 366.667,349.167 367,334.5C 373.135,327.364 379.635,320.531 386.5,314C 392.468,309.126 397.968,309.626 403,315.5C 404.92,339.807 404.92,364.14 403,388.5C 396.993,419.342 379.493,440.842 350.5,453C 345.246,454.647 339.913,455.98 334.5,457C 290.184,458.134 245.851,458.634 201.5,458.5C 161.167,458.333 120.833,458.167 80.5,458C 36.2086,454.2 9.20864,430.7 -0.5,387.5 Z"/></g>
<g><path style="opacity:0.977" fill="#000000" d="M 511.5,119.5 C 511.5,124.5 511.5,129.5 511.5,134.5C 510.046,137.408 508.546,140.408 507,143.5C 497,153.5 487,163.5 477,173.5C 449.167,145.667 421.333,117.833 393.5,90C 404.23,78.6011 415.563,67.9344 427.5,58C 437.502,54.1669 447.169,54.8335 456.5,60C 473.333,76.8333 490.167,93.6667 507,110.5C 508.85,113.462 510.35,116.462 511.5,119.5 Z"/></g>
<g><path style="opacity:0.971" fill="#000000" d="M 374.5,108.5 C 375.552,108.351 376.552,108.517 377.5,109C 404.833,136.333 432.167,163.667 459.5,191C 395.167,255.333 330.833,319.667 266.5,384C 238.502,384.5 210.502,384.667 182.5,384.5C 182.333,356.498 182.5,328.498 183,300.5C 247.035,236.632 310.868,172.632 374.5,108.5 Z M 373.5,148.5 C 378.067,148.056 381.067,150.056 382.5,154.5C 348.043,190.458 313.043,225.958 277.5,261C 272.924,261.95 269.924,260.117 268.5,255.5C 269,254.5 269.5,253.5 270,252.5C 304.701,217.965 339.201,183.299 373.5,148.5 Z M 243.5,280.5 C 257.965,294.465 272.299,308.631 286.5,323C 275.5,334 264.5,345 253.5,356C 248.511,356.499 243.511,356.666 238.5,356.5C 238.5,347.167 238.5,337.833 238.5,328.5C 229.5,328.5 220.5,328.5 211.5,328.5C 211.334,323.156 211.501,317.823 212,312.5C 222.702,301.965 233.202,291.298 243.5,280.5 Z"/></g>
</svg>
