<?xml version="1.0" encoding="UTF-8"?>
<!DOCTYPE svg PUBLIC "-//W3C//DTD SVG 1.1//EN" "http://www.w3.org/Graphics/SVG/1.1/DTD/svg11.dtd">
<svg xmlns="http://www.w3.org/2000/svg" version="1.1" width="750px" height="750px" style="shape-rendering:geometricPrecision; text-rendering:geometricPrecision; image-rendering:optimizeQuality; fill-rule:evenodd; clip-rule:evenodd" xmlns:xlink="http://www.w3.org/1999/xlink">
<g><path style="opacity:1" fill="#eaf0fe" d="M 425.5,189.5 C 426.686,190.961 426.686,192.295 425.5,193.5C 400.498,193.333 375.498,193.5 350.5,194C 347.063,195.105 344.563,197.272 343,200.5C 337.115,295.007 330.948,389.341 324.5,483.5C 309.347,480.449 294.347,476.782 279.5,472.5C 286.99,434.048 294.99,395.715 303.5,357.5C 304.612,355.401 305.279,353.067 305.5,350.5C 308.518,327.728 312.184,305.061 316.5,282.5C 321.064,283.508 324.564,281.841 327,277.5C 328.662,270.997 326.162,267.997 319.5,268.5C 321.036,257.084 323.036,245.75 325.5,234.5C 325.376,233.893 325.043,233.56 324.5,233.5C 324.5,232.833 324.5,232.167 324.5,231.5C 321.854,230.836 319.021,230.502 316,230.5C 312.748,230.519 309.915,231.186 307.5,232.5C 307.586,233.496 307.252,234.329 306.5,235C 302.281,236.012 299.448,238.512 298,242.5C 296.435,254.962 294.268,267.295 291.5,279.5C 288.956,279.896 286.789,279.229 285,277.5C 282.268,272.707 280.101,267.707 278.5,262.5C 282.849,260.182 284.349,256.515 283,251.5C 281.207,245.121 279.207,238.788 277,232.5C 275.643,229.102 273.81,226.102 271.5,223.5C 271.489,221.983 270.823,220.816 269.5,220C 262.855,217.893 256.188,216.393 249.5,215.5C 248.604,210.617 245.937,207.284 241.5,205.5C 244.584,203.689 247.751,201.689 251,199.5C 254.021,194.466 256.188,189.132 257.5,183.5C 254.864,177.602 251.864,171.935 248.5,166.5C 249.684,165.312 249.684,164.145 248.5,163C 251.5,162.667 254.5,162.333 257.5,162C 258.167,161.333 258.833,160.667 259.5,160C 256.068,159.884 253.068,158.717 250.5,156.5C 252.447,154.724 252.78,152.724 251.5,150.5C 244.519,152.544 237.519,154.21 230.5,155.5C 229.719,154.263 228.719,153.263 227.5,152.5C 225.711,156.864 222.377,158.697 217.5,158C 211.831,160.815 209.998,165.315 212,171.5C 212.377,172.942 213.21,173.942 214.5,174.5C 214.941,181.392 217.108,187.725 221,193.5C 222.385,196.386 224.551,198.386 227.5,199.5C 227.5,201.167 227.5,202.833 227.5,204.5C 225.856,204.286 224.356,204.62 223,205.5C 220.743,208.438 219.576,211.771 219.5,215.5C 214.323,215.863 209.323,217.197 204.5,219.5C 199.025,221.136 194.858,224.47 192,229.5C 189.06,235.046 186.394,240.713 184,246.5C 183.252,248.84 183.752,250.84 185.5,252.5C 179.936,261.696 177.103,271.696 177,282.5C 180.475,295.788 186.808,307.454 196,317.5C 197.076,323.333 199.909,327.999 204.5,331.5C 200.697,364.492 196.864,397.492 193,430.5C 192.722,431.416 192.222,432.082 191.5,432.5C 119.852,385.428 94.6851,320.094 116,236.5C 123.568,210.672 136.735,188.339 155.5,169.5C 157.833,167.833 159.833,165.833 161.5,163.5C 187.558,137.974 218.891,122.808 255.5,118C 316.719,111.515 369.219,129.682 413,172.5C 417.409,178.063 421.576,183.729 425.5,189.5 Z"/></g>
<g><path style="opacity:1" fill="#29343b" d="M 248.5,166.5 C 246.883,167.038 245.216,167.371 243.5,167.5C 237.455,170.853 231.122,173.687 224.5,176C 220.851,176.963 217.518,176.463 214.5,174.5C 213.21,173.942 212.377,172.942 212,171.5C 209.998,165.315 211.831,160.815 217.5,158C 222.377,158.697 225.711,156.864 227.5,152.5C 228.719,153.263 229.719,154.263 230.5,155.5C 237.519,154.21 244.519,152.544 251.5,150.5C 252.78,152.724 252.447,154.724 250.5,156.5C 253.068,158.717 256.068,159.884 259.5,160C 258.833,160.667 258.167,161.333 257.5,162C 254.5,162.333 251.5,162.667 248.5,163C 249.684,164.145 249.684,165.312 248.5,166.5 Z"/></g>
<g><path style="opacity:1" fill="#fabfba" d="M 248.5,166.5 C 251.864,171.935 254.864,177.602 257.5,183.5C 256.188,189.132 254.021,194.466 251,199.5C 247.751,201.689 244.584,203.689 241.5,205.5C 236.819,205.331 232.152,204.998 227.5,204.5C 227.5,202.833 227.5,201.167 227.5,199.5C 237.101,201.103 242.767,196.936 244.5,187C 243.73,185.225 242.563,183.725 241,182.5C 239.75,179.923 239.416,177.257 240,174.5C 241.699,173.594 243.533,173.261 245.5,173.5C 245.747,171.142 245.081,169.142 243.5,167.5C 245.216,167.371 246.883,167.038 248.5,166.5 Z"/></g>
<g><path style="opacity:0.792" fill="#abb5ff" d="M 161.5,163.5 C 159.833,165.833 157.833,167.833 155.5,169.5C 156.5,166.5 158.5,164.5 161.5,163.5 Z"/></g>
<g><path style="opacity:1" fill="#525054" d="M 243.5,167.5 C 245.081,169.142 245.747,171.142 245.5,173.5C 243.533,173.261 241.699,173.594 240,174.5C 239.416,177.257 239.75,179.923 241,182.5C 242.563,183.725 243.73,185.225 244.5,187C 242.767,196.936 237.101,201.103 227.5,199.5C 224.551,198.386 222.385,196.386 221,193.5C 217.108,187.725 214.941,181.392 214.5,174.5C 217.518,176.463 220.851,176.963 224.5,176C 231.122,173.687 237.455,170.853 243.5,167.5 Z"/></g>
<g><path style="opacity:1" fill="#b3cafe" d="M 520.5,193.5 C 519.475,196.974 518.808,200.64 518.5,204.5C 518.5,205.167 518.5,205.833 518.5,206.5C 516.866,209.832 514.199,211.999 510.5,213C 483.833,213.667 457.167,213.667 430.5,213C 426.163,211.828 424.163,208.994 424.5,204.5C 424.942,200.846 425.276,197.179 425.5,193.5C 426.686,192.295 426.686,190.961 425.5,189.5C 425.927,184.834 428.26,181.334 432.5,179C 460.833,178.333 489.167,178.333 517.5,179C 521.701,183.036 522.701,187.87 520.5,193.5 Z"/></g>
<g><path style="opacity:1" fill="#d7e3ff" d="M 459.5,182.5 C 462.167,182.5 464.833,182.5 467.5,182.5C 467.5,183.833 467.5,185.167 467.5,186.5C 464.833,186.5 462.167,186.5 459.5,186.5C 459.5,185.167 459.5,183.833 459.5,182.5 Z"/></g>
<g><path style="opacity:1" fill="#d8e4ff" d="M 475.5,182.5 C 487.838,182.333 500.171,182.5 512.5,183C 513.833,184 513.833,185 512.5,186C 500.167,186.667 487.833,186.667 475.5,186C 474.316,184.855 474.316,183.688 475.5,182.5 Z"/></g>
<g><path style="opacity:0.998" fill="#417bfd" d="M 425.5,193.5 C 425.276,197.179 424.942,200.846 424.5,204.5C 399.167,204.5 373.833,204.5 348.5,204.5C 347.314,256.857 345.481,309.19 343,361.5C 339.24,413.242 334.74,464.908 329.5,516.5C 331.833,516.5 334.167,516.5 336.5,516.5C 336.5,517.833 336.5,519.167 336.5,520.5C 416.498,521.341 496.498,522.008 576.5,522.5C 578.854,488.188 580.854,453.855 582.5,419.5C 586.093,374.553 588.76,329.553 590.5,284.5C 592.656,259.348 594.323,234.014 595.5,208.5C 594.5,208.5 593.5,208.5 592.5,208.5C 592.768,206.901 592.434,205.568 591.5,204.5C 567.167,204.5 542.833,204.5 518.5,204.5C 518.808,200.64 519.475,196.974 520.5,193.5C 547.833,193.5 575.167,193.5 602.5,193.5C 607.912,196.322 609.912,200.822 608.5,207C 601.978,314.856 595.144,422.69 588,530.5C 586.789,534.334 584.289,536.667 580.5,537.5C 496.166,537.667 411.833,537.5 327.5,537C 325.333,536.167 323.833,534.667 323,532.5C 322.959,516.158 323.459,499.825 324.5,483.5C 330.948,389.341 337.115,295.007 343,200.5C 344.563,197.272 347.063,195.105 350.5,194C 375.498,193.5 400.498,193.333 425.5,193.5 Z"/></g>
<g><path style="opacity:1" fill="#294d9e" d="M 602.5,193.5 C 610.074,192.283 614.407,195.45 615.5,203C 612.648,240.798 610.315,278.632 608.5,316.5C 604.325,365.111 600.992,413.944 598.5,463C 598.506,465.033 598.839,466.866 599.5,468.5C 597.57,489.453 595.737,510.453 594,531.5C 591.09,536.863 586.59,538.863 580.5,537.5C 584.289,536.667 586.789,534.334 588,530.5C 595.144,422.69 601.978,314.856 608.5,207C 609.912,200.822 607.912,196.322 602.5,193.5 Z"/></g>
<g><path style="opacity:1" fill="#d8e3fd" d="M 518.5,204.5 C 542.833,204.5 567.167,204.5 591.5,204.5C 591.5,204.833 591.5,205.167 591.5,205.5C 567.092,205.177 542.759,205.51 518.5,206.5C 518.5,205.833 518.5,205.167 518.5,204.5 Z"/></g>
<g><path style="opacity:1" fill="#2b363c" d="M 227.5,204.5 C 232.152,204.998 236.819,205.331 241.5,205.5C 245.937,207.284 248.604,210.617 249.5,215.5C 239.5,215.5 229.5,215.5 219.5,215.5C 219.576,211.771 220.743,208.438 223,205.5C 224.356,204.62 225.856,204.286 227.5,204.5 Z"/></g>
<g><path style="opacity:1" fill="#fefefe" d="M 424.5,204.5 C 424.163,208.994 426.163,211.828 430.5,213C 457.167,213.667 483.833,213.667 510.5,213C 514.199,211.999 516.866,209.832 518.5,206.5C 542.759,205.51 567.092,205.177 591.5,205.5C 591.183,231.834 590.85,258.167 590.5,284.5C 588.76,329.553 586.093,374.553 582.5,419.5C 579.105,451.688 575.771,484.021 572.5,516.5C 493.833,516.5 415.167,516.5 336.5,516.5C 334.167,516.5 331.833,516.5 329.5,516.5C 334.74,464.908 339.24,413.242 343,361.5C 345.481,309.19 347.314,256.857 348.5,204.5C 373.833,204.5 399.167,204.5 424.5,204.5 Z"/></g>
<g><path style="opacity:1" fill="#3152a1" d="M 591.5,204.5 C 592.434,205.568 592.768,206.901 592.5,208.5C 593.5,208.5 594.5,208.5 595.5,208.5C 594.323,234.014 592.656,259.348 590.5,284.5C 590.85,258.167 591.183,231.834 591.5,205.5C 591.5,205.167 591.5,204.833 591.5,204.5 Z"/></g>
<g><path style="opacity:1" fill="#417bfd" d="M 219.5,215.5 C 229.5,215.5 239.5,215.5 249.5,215.5C 256.188,216.393 262.855,217.893 269.5,220C 270.823,220.816 271.489,221.983 271.5,223.5C 261.925,218.186 254.092,220.186 248,229.5C 244.734,234.738 243.734,240.405 245,246.5C 247.295,255.927 251.795,264.094 258.5,271C 260.197,271.384 261.863,271.218 263.5,270.5C 265.988,276.81 268.988,282.81 272.5,288.5C 272.738,299.203 272.238,309.87 271,320.5C 270.292,321.381 269.458,322.047 268.5,322.5C 247.189,321.017 225.856,320.017 204.5,319.5C 203.883,319.389 203.383,319.056 203,318.5C 202.502,315.183 202.335,311.85 202.5,308.5C 202.816,293.422 202.483,278.422 201.5,263.5C 199.902,251.21 199.402,238.877 200,226.5C 201.012,223.798 202.512,221.465 204.5,219.5C 209.323,217.197 214.323,215.863 219.5,215.5 Z"/></g>
<g><path style="opacity:1" fill="#273339" d="M 271.5,223.5 C 273.81,226.102 275.643,229.102 277,232.5C 279.207,238.788 281.207,245.121 283,251.5C 284.349,256.515 282.849,260.182 278.5,262.5C 273.016,264.407 268.016,267.073 263.5,270.5C 261.863,271.218 260.197,271.384 258.5,271C 251.795,264.094 247.295,255.927 245,246.5C 243.734,240.405 244.734,234.738 248,229.5C 254.092,220.186 261.925,218.186 271.5,223.5 Z"/></g>
<g><path style="opacity:1" fill="#29353c" d="M 204.5,219.5 C 202.512,221.465 201.012,223.798 200,226.5C 199.402,238.877 199.902,251.21 201.5,263.5C 200.833,263.5 200.167,263.5 199.5,263.5C 195.432,259.101 190.765,255.435 185.5,252.5C 183.752,250.84 183.252,248.84 184,246.5C 186.394,240.713 189.06,235.046 192,229.5C 194.858,224.47 199.025,221.136 204.5,219.5 Z"/></g>
<g><path style="opacity:1" fill="#8b949d" d="M 324.5,231.5 C 318.741,231.214 313.075,231.548 307.5,232.5C 309.915,231.186 312.748,230.519 316,230.5C 319.021,230.502 321.854,230.836 324.5,231.5 Z"/></g>
<g><path style="opacity:1" fill="#2f3b42" d="M 324.5,231.5 C 324.5,232.167 324.5,232.833 324.5,233.5C 318.167,235.5 311.833,237.5 305.5,239.5C 304.206,240.29 303.039,241.29 302,242.5C 300.342,254.613 298.175,266.613 295.5,278.5C 294.292,279.234 292.959,279.567 291.5,279.5C 294.268,267.295 296.435,254.962 298,242.5C 299.448,238.512 302.281,236.012 306.5,235C 307.252,234.329 307.586,233.496 307.5,232.5C 313.075,231.548 318.741,231.214 324.5,231.5 Z"/></g>
<g><path style="opacity:1" fill="#427bfe" d="M 324.5,233.5 C 325.043,233.56 325.376,233.893 325.5,234.5C 323.036,245.75 321.036,257.084 319.5,268.5C 317.287,270.86 314.621,272.694 311.5,274C 306.798,275.506 302.132,277.006 297.5,278.5C 299.845,265.431 302.511,252.431 305.5,239.5C 311.833,237.5 318.167,235.5 324.5,233.5 Z"/></g>
<g><path style="opacity:1" fill="#c8d9ff" d="M 569.5,243.5 C 566.523,245.467 563.523,247.467 560.5,249.5C 549.012,248.505 537.345,248.172 525.5,248.5C 525.5,252.833 525.5,257.167 525.5,261.5C 522.873,261.293 521.207,262.46 520.5,265C 522.282,267.06 524.282,268.893 526.5,270.5C 525.778,270.918 525.278,271.584 525,272.5C 524.501,276.152 524.335,279.818 524.5,283.5C 536.167,283.5 547.833,283.5 559.5,283.5C 560.249,274.845 560.916,266.178 561.5,257.5C 563.607,255.273 565.94,253.273 568.5,251.5C 567.202,263.451 566.369,275.451 566,287.5C 565.626,288.416 565.126,289.25 564.5,290C 549.5,290.667 534.5,290.667 519.5,290C 519,289.5 518.5,289 518,288.5C 517.833,286.333 517.667,284.167 517.5,282C 518.957,269.547 519.79,257.047 520,244.5C 520.5,244 521,243.5 521.5,243C 537.544,242.197 553.544,242.364 569.5,243.5 Z"/></g>
<g><path style="opacity:1" fill="#497fff" d="M 569.5,243.5 C 574.159,243.015 575.492,244.848 573.5,249C 571.807,249.847 570.14,250.68 568.5,251.5C 565.94,253.273 563.607,255.273 561.5,257.5C 554.338,263.829 547.671,270.662 541.5,278C 540.167,278.667 538.833,278.667 537.5,278C 533.805,275.49 530.138,272.99 526.5,270.5C 524.282,268.893 522.282,267.06 520.5,265C 521.207,262.46 522.873,261.293 525.5,261.5C 529.817,264.97 534.317,268.303 539,271.5C 545.699,263.635 552.865,256.302 560.5,249.5C 563.523,247.467 566.523,245.467 569.5,243.5 Z"/></g>
<g><path style="opacity:1" fill="#fcfdff" d="M 560.5,249.5 C 552.865,256.302 545.699,263.635 539,271.5C 534.317,268.303 529.817,264.97 525.5,261.5C 525.5,257.167 525.5,252.833 525.5,248.5C 537.345,248.172 549.012,248.505 560.5,249.5 Z"/></g>
<g><path style="opacity:1" fill="#c5d7ff" d="M 387.5,250.5 C 420.835,250.333 454.168,250.5 487.5,251C 490.299,254.339 489.966,257.339 486.5,260C 453.167,260.667 419.833,260.667 386.5,260C 383.69,256.432 384.023,253.266 387.5,250.5 Z"/></g>
<g><path style="opacity:1" fill="#fdc3bd" d="M 185.5,252.5 C 190.765,255.435 195.432,259.101 199.5,263.5C 196.193,268.615 193.527,274.115 191.5,280C 193.516,290.226 197.182,299.726 202.5,308.5C 202.335,311.85 202.502,315.183 203,318.5C 203.383,319.056 203.883,319.389 204.5,319.5C 205.833,323.5 205.833,327.5 204.5,331.5C 199.909,327.999 197.076,323.333 196,317.5C 186.808,307.454 180.475,295.788 177,282.5C 177.103,271.696 179.936,261.696 185.5,252.5 Z"/></g>
<g><path style="opacity:1" fill="#d1dbef" d="M 305.5,239.5 C 302.511,252.431 299.845,265.431 297.5,278.5C 296.833,278.5 296.167,278.5 295.5,278.5C 298.175,266.613 300.342,254.613 302,242.5C 303.039,241.29 304.206,240.29 305.5,239.5 Z"/></g>
<g><path style="opacity:1" fill="#fdfdff" d="M 561.5,257.5 C 560.916,266.178 560.249,274.845 559.5,283.5C 547.833,283.5 536.167,283.5 524.5,283.5C 524.335,279.818 524.501,276.152 525,272.5C 525.278,271.584 525.778,270.918 526.5,270.5C 530.138,272.99 533.805,275.49 537.5,278C 538.833,278.667 540.167,278.667 541.5,278C 547.671,270.662 554.338,263.829 561.5,257.5 Z"/></g>
<g><path style="opacity:1" fill="#fcc2be" d="M 278.5,262.5 C 280.101,267.707 282.268,272.707 285,277.5C 286.789,279.229 288.956,279.896 291.5,279.5C 292.959,279.567 294.292,279.234 295.5,278.5C 296.167,278.5 296.833,278.5 297.5,278.5C 302.132,277.006 306.798,275.506 311.5,274C 314.621,272.694 317.287,270.86 319.5,268.5C 326.162,267.997 328.662,270.997 327,277.5C 324.564,281.841 321.064,283.508 316.5,282.5C 309.508,287.495 301.841,291.162 293.5,293.5C 292.391,293.557 291.391,293.89 290.5,294.5C 289.5,294.5 288.5,294.5 287.5,294.5C 281.709,294.437 276.709,292.437 272.5,288.5C 268.988,282.81 265.988,276.81 263.5,270.5C 268.016,267.073 273.016,264.407 278.5,262.5 Z"/></g>
<g><path style="opacity:1" fill="#e9eefd" d="M 199.5,263.5 C 200.167,263.5 200.833,263.5 201.5,263.5C 202.483,278.422 202.816,293.422 202.5,308.5C 197.182,299.726 193.516,290.226 191.5,280C 193.527,274.115 196.193,268.615 199.5,263.5 Z"/></g>
<g><path style="opacity:1" fill="#c7d8ff" d="M 404.5,271.5 C 431.502,271.333 458.502,271.5 485.5,272C 489.582,275.697 489.249,279.03 484.5,282C 457.833,282.667 431.167,282.667 404.5,282C 400.565,278.504 400.565,275.004 404.5,271.5 Z"/></g>
<g><path style="opacity:1" fill="#437cfe" d="M 316.5,282.5 C 312.184,305.061 308.518,327.728 305.5,350.5C 298.794,349.759 292.128,348.759 285.5,347.5C 284.351,347.209 283.684,346.376 283.5,345C 287.283,327.916 290.617,310.75 293.5,293.5C 301.841,291.162 309.508,287.495 316.5,282.5 Z"/></g>
<g><path style="opacity:1" fill="#e9effd" d="M 272.5,288.5 C 276.709,292.437 281.709,294.437 287.5,294.5C 284.762,301.712 282.429,309.046 280.5,316.5C 281.822,316.67 282.989,316.337 284,315.5C 286.879,308.699 289.045,301.699 290.5,294.5C 291.391,293.89 292.391,293.557 293.5,293.5C 290.617,310.75 287.283,327.916 283.5,345C 283.684,346.376 284.351,347.209 285.5,347.5C 284.659,349.379 284.325,351.379 284.5,353.5C 283.5,353.5 282.5,353.5 281.5,353.5C 277.448,378.339 273.115,403.006 268.5,427.5C 268.5,392.5 268.5,357.5 268.5,322.5C 269.458,322.047 270.292,321.381 271,320.5C 272.238,309.87 272.738,299.203 272.5,288.5 Z"/></g>
<g><path style="opacity:1" fill="#303c42" d="M 287.5,294.5 C 288.5,294.5 289.5,294.5 290.5,294.5C 289.045,301.699 286.879,308.699 284,315.5C 282.989,316.337 281.822,316.67 280.5,316.5C 282.429,309.046 284.762,301.712 287.5,294.5 Z"/></g>
<g><path style="opacity:1" fill="#c9daff" d="M 564.5,311.5 C 562.365,313.071 560.032,314.404 557.5,315.5C 557.5,314.5 557.5,313.5 557.5,312.5C 545.5,312.5 533.5,312.5 521.5,312.5C 521.5,316.167 521.5,319.833 521.5,323.5C 519.751,321.469 517.751,321.135 515.5,322.5C 515.334,317.821 515.501,313.155 516,308.5C 516.833,307.667 517.667,306.833 518.5,306C 533.167,305.333 547.833,305.333 562.5,306C 564.155,307.444 564.822,309.278 564.5,311.5 Z"/></g>
<g><path style="opacity:1" fill="#487fff" d="M 564.5,311.5 C 566.527,311.338 568.527,311.505 570.5,312C 571.86,313.938 571.527,315.604 569.5,317C 567.753,317.352 566.086,317.852 564.5,318.5C 561.46,319.68 558.794,321.347 556.5,323.5C 548.079,329.13 539.912,335.13 532,341.5C 528.345,338.678 524.845,335.678 521.5,332.5C 519.873,330.37 518.04,328.37 516,326.5C 515.517,325.552 515.351,324.552 515.5,323.5C 515.5,323.167 515.5,322.833 515.5,322.5C 517.751,321.135 519.751,321.469 521.5,323.5C 525.121,326.783 528.787,330.116 532.5,333.5C 540.293,326.7 548.627,320.7 557.5,315.5C 560.032,314.404 562.365,313.071 564.5,311.5 Z"/></g>
<g><path style="opacity:1" fill="#fcfcff" d="M 557.5,315.5 C 548.627,320.7 540.293,326.7 532.5,333.5C 528.787,330.116 525.121,326.783 521.5,323.5C 521.5,319.833 521.5,316.167 521.5,312.5C 533.5,312.5 545.5,312.5 557.5,312.5C 557.5,313.5 557.5,314.5 557.5,315.5 Z"/></g>
<g><path style="opacity:1" fill="#c7d8ff" d="M 402.5,313.5 C 429.169,313.333 455.835,313.5 482.5,314C 486.485,317.286 486.485,320.619 482.5,324C 455.5,324.667 428.5,324.667 401.5,324C 397.498,320.152 397.831,316.652 402.5,313.5 Z"/></g>
<g><path style="opacity:1" fill="#e8effe" d="M 608.5,316.5 C 635.438,335.732 647.271,362.065 644,395.5C 641.854,427.828 627.021,452.162 599.5,468.5C 598.839,466.866 598.506,465.033 598.5,463C 600.992,413.944 604.325,365.111 608.5,316.5 Z"/></g>
<g><path style="opacity:0.995" fill="#263238" d="M 204.5,319.5 C 225.856,320.017 247.189,321.017 268.5,322.5C 268.5,357.5 268.5,392.5 268.5,427.5C 266.881,458.886 264.547,490.219 261.5,521.5C 263.903,521.448 266.236,521.781 268.5,522.5C 265.679,528.812 262.845,535.145 260,541.5C 258.367,557.161 256.867,572.827 255.5,588.5C 248.254,589.464 240.92,589.797 233.5,589.5C 233.591,544.496 233.258,499.496 232.5,454.5C 232.5,444.5 232.5,434.5 232.5,424.5C 233.103,419.381 232.436,414.715 230.5,410.5C 231.162,394.545 230.662,378.545 229,362.5C 225.739,376.966 224.239,391.633 224.5,406.5C 224.402,416.372 225.069,426.039 226.5,435.5C 225.178,440.429 224.178,445.429 223.5,450.5C 219.315,465.905 214.815,481.238 210,496.5C 199.723,527.165 189.556,557.832 179.5,588.5C 172.121,587.656 164.788,586.489 157.5,585C 156.944,584.617 156.611,584.117 156.5,583.5C 169.675,541.133 180.508,498.133 189,454.5C 190.256,447.207 191.09,439.874 191.5,432.5C 192.222,432.082 192.722,431.416 193,430.5C 196.864,397.492 200.697,364.492 204.5,331.5C 205.833,327.5 205.833,323.5 204.5,319.5 Z"/></g>
<g><path style="opacity:1" fill="#c7d8ff" d="M 564.5,318.5 C 562.919,329.42 562.086,340.42 562,351.5C 561.5,352 561,352.5 560.5,353C 545.167,353.667 529.833,353.667 514.5,353C 513.866,350.925 513.532,348.759 513.5,346.5C 513.937,338.66 514.604,330.993 515.5,323.5C 515.351,324.552 515.517,325.552 516,326.5C 518.04,328.37 519.873,330.37 521.5,332.5C 520.513,337.305 520.179,342.305 520.5,347.5C 532.5,347.5 544.5,347.5 556.5,347.5C 556.654,339.29 556.654,331.29 556.5,323.5C 558.794,321.347 561.46,319.68 564.5,318.5 Z"/></g>
<g><path style="opacity:1" fill="#fcfdff" d="M 556.5,323.5 C 556.654,331.29 556.654,339.29 556.5,347.5C 544.5,347.5 532.5,347.5 520.5,347.5C 520.179,342.305 520.513,337.305 521.5,332.5C 524.845,335.678 528.345,338.678 532,341.5C 539.912,335.13 548.079,329.13 556.5,323.5 Z"/></g>
<g><path style="opacity:1" fill="#c5d7ff" d="M 382.5,335.5 C 415.502,335.333 448.502,335.5 481.5,336C 483.646,336.479 484.646,337.812 484.5,340C 484.516,342.305 483.516,343.972 481.5,345C 448.167,345.667 414.833,345.667 381.5,345C 378.765,341.508 379.098,338.342 382.5,335.5 Z"/></g>
<g><path style="opacity:1" fill="#323f48" d="M 285.5,347.5 C 292.128,348.759 298.794,349.759 305.5,350.5C 305.279,353.067 304.612,355.401 303.5,357.5C 296.884,356.911 290.55,355.578 284.5,353.5C 284.325,351.379 284.659,349.379 285.5,347.5 Z"/></g>
<g><path style="opacity:0.993" fill="#427bfd" d="M 284.5,353.5 C 290.55,355.578 296.884,356.911 303.5,357.5C 294.99,395.715 286.99,434.048 279.5,472.5C 276.323,489.394 272.657,506.061 268.5,522.5C 266.236,521.781 263.903,521.448 261.5,521.5C 264.547,490.219 266.881,458.886 268.5,427.5C 273.115,403.006 277.448,378.339 281.5,353.5C 282.5,353.5 283.5,353.5 284.5,353.5 Z"/></g>
<g><path style="opacity:1" fill="#1c2529" d="M 230.5,410.5 C 230.5,411.5 230.5,412.5 230.5,413.5C 229.259,420.856 227.926,428.189 226.5,435.5C 225.069,426.039 224.402,416.372 224.5,406.5C 224.239,391.633 225.739,376.966 229,362.5C 230.662,378.545 231.162,394.545 230.5,410.5 Z"/></g>
<g><path style="opacity:1" fill="#c7d8ff" d="M 513.5,369.5 C 528.504,369.333 543.504,369.5 558.5,370C 559,370.5 559.5,371 560,371.5C 559.277,386.129 558.61,400.795 558,415.5C 557.5,416 557,416.5 556.5,417C 541.17,417.5 525.837,417.667 510.5,417.5C 510.068,401.379 511.068,385.379 513.5,369.5 Z"/></g>
<g><path style="opacity:1" fill="#fdfeff" d="M 518.5,375.5 C 530.5,375.5 542.5,375.5 554.5,375.5C 552.836,387.427 552.169,399.427 552.5,411.5C 540.5,411.5 528.5,411.5 516.5,411.5C 516.835,399.478 517.501,387.478 518.5,375.5 Z"/></g>
<g><path style="opacity:1" fill="#c7d8ff" d="M 380.5,377.5 C 413.168,377.333 445.835,377.5 478.5,378C 482.436,381.159 482.436,384.492 478.5,388C 445.5,388.667 412.5,388.667 379.5,388C 375.336,384.005 375.669,380.505 380.5,377.5 Z"/></g>
<g><path style="opacity:1" fill="#c5d7ff" d="M 396.5,399.5 C 404.84,399.334 413.173,399.5 421.5,400C 424.299,403.339 423.966,406.339 420.5,409C 412.167,409.667 403.833,409.667 395.5,409C 392.765,405.508 393.098,402.342 396.5,399.5 Z"/></g>
<g><path style="opacity:1" fill="#c5d7ff" d="M 434.5,399.5 C 449.17,399.333 463.837,399.5 478.5,400C 481.311,403.294 480.978,406.294 477.5,409C 463.167,409.667 448.833,409.667 434.5,409C 431.888,405.836 431.888,402.669 434.5,399.5 Z"/></g>
<g><path style="opacity:1" fill="#e2e8f7" d="M 230.5,413.5 C 231.167,417.167 231.833,420.833 232.5,424.5C 232.5,434.5 232.5,444.5 232.5,454.5C 229.5,453.167 226.5,451.833 223.5,450.5C 224.178,445.429 225.178,440.429 226.5,435.5C 227.926,428.189 229.259,420.856 230.5,413.5 Z"/></g>
<g><path style="opacity:1" fill="#838d96" d="M 230.5,410.5 C 232.436,414.715 233.103,419.381 232.5,424.5C 231.833,420.833 231.167,417.167 230.5,413.5C 230.5,412.5 230.5,411.5 230.5,410.5 Z"/></g>
<g><path style="opacity:1" fill="#c6d7ff" d="M 509.5,433.5 C 524.882,433.183 540.215,433.516 555.5,434.5C 555.833,435.667 556.167,436.833 556.5,438C 555.259,451.806 554.425,465.639 554,479.5C 553.5,480 553,480.5 552.5,481C 537.259,481.824 522.092,481.657 507,480.5C 506.286,464.695 507.119,449.029 509.5,433.5 Z"/></g>
<g><path style="opacity:1" fill="#fefeff" d="M 514.5,439.5 C 526.5,439.5 538.5,439.5 550.5,439.5C 549.099,451.45 548.432,463.45 548.5,475.5C 536.5,475.5 524.5,475.5 512.5,475.5C 512.504,463.459 513.17,451.459 514.5,439.5 Z"/></g>
<g><path style="opacity:1" fill="#c7d8ff" d="M 375.5,441.5 C 408.835,441.333 442.168,441.5 475.5,442C 478.343,445.619 478.01,448.952 474.5,452C 441.5,452.667 408.5,452.667 375.5,452C 371.565,448.504 371.565,445.004 375.5,441.5 Z"/></g>
<g><path style="opacity:1" fill="#3153a2" d="M 582.5,419.5 C 580.854,453.855 578.854,488.188 576.5,522.5C 496.498,522.008 416.498,521.341 336.5,520.5C 336.5,519.167 336.5,517.833 336.5,516.5C 415.167,516.5 493.833,516.5 572.5,516.5C 575.771,484.021 579.105,451.688 582.5,419.5 Z"/></g>
<g><path style="opacity:1" fill="#c5d7ff" d="M 391.5,463.5 C 419.169,463.333 446.835,463.5 474.5,464C 477.311,467.294 476.978,470.294 473.5,473C 446.167,473.667 418.833,473.667 391.5,473C 388.888,469.836 388.888,466.669 391.5,463.5 Z"/></g>
<g><path style="opacity:0.946" fill="#4179fb" d="M 156.5,583.5 C 156.611,584.117 156.944,584.617 157.5,585C 164.788,586.489 172.121,587.656 179.5,588.5C 180.239,588.369 180.906,588.536 181.5,589C 180.167,591.333 178.833,593.667 177.5,596C 175.402,596.678 173.402,596.511 171.5,595.5C 167.243,594.179 162.91,593.179 158.5,592.5C 156.833,592.5 155.167,592.5 153.5,592.5C 153.446,589.008 154.446,586.008 156.5,583.5 Z"/></g>
<g><path style="opacity:0.951" fill="#487bfa" d="M 255.5,588.5 C 256.675,588.281 257.675,588.614 258.5,589.5C 257.607,592.084 257.274,594.751 257.5,597.5C 255.167,597.5 252.833,597.5 250.5,597.5C 246.167,597.5 241.833,597.5 237.5,597.5C 235.833,597.5 234.167,597.5 232.5,597.5C 232.489,595.453 232.156,593.453 231.5,591.5C 231.747,590.287 232.414,589.62 233.5,589.5C 240.92,589.797 248.254,589.464 255.5,588.5 Z"/></g>
<g><path style="opacity:0.947" fill="#f4bbb6" d="M 158.5,592.5 C 162.91,593.179 167.243,594.179 171.5,595.5C 170.101,598.699 169.101,602.032 168.5,605.5C 167.662,605.842 167.328,606.508 167.5,607.5C 162.778,607.626 158.445,606.626 154.5,604.5C 156.029,600.579 157.363,596.579 158.5,592.5 Z"/></g>
<g><path style="opacity:0.963" fill="#f8bfb9" d="M 237.5,597.5 C 241.833,597.5 246.167,597.5 250.5,597.5C 249.502,601.328 249.502,604.994 250.5,608.5C 250.5,609.167 250.5,609.833 250.5,610.5C 246.167,610.5 241.833,610.5 237.5,610.5C 237.5,609.833 237.5,609.167 237.5,608.5C 237.5,604.833 237.5,601.167 237.5,597.5 Z"/></g>
<g><path style="opacity:0.397" fill="#3f76f5" d="M 174.5,611.5 C 173.5,611.5 172.5,611.5 171.5,611.5C 169.738,610.738 168.738,609.404 168.5,607.5C 168.5,606.833 168.5,606.167 168.5,605.5C 169.708,604.766 171.041,604.433 172.5,604.5C 173.167,606.833 173.833,609.167 174.5,611.5 Z"/></g>
<g><path style="opacity:0.993" fill="#29353b" d="M 154.5,604.5 C 158.445,606.626 162.778,607.626 167.5,607.5C 167.833,607.5 168.167,607.5 168.5,607.5C 168.738,609.404 169.738,610.738 171.5,611.5C 174.655,615.006 178.489,617.673 183,619.5C 183.649,622.918 182.149,624.251 178.5,623.5C 169.265,621.22 159.932,619.386 150.5,618C 149.464,616.224 149.464,614.391 150.5,612.5C 151.326,609.515 152.659,606.849 154.5,604.5 Z"/></g>
<g><path style="opacity:0.969" fill="#f4f4f4" d="M 150.5,612.5 C 149.464,614.391 149.464,616.224 150.5,618C 159.932,619.386 169.265,621.22 178.5,623.5C 182.149,624.251 183.649,622.918 183,619.5C 178.489,617.673 174.655,615.006 171.5,611.5C 172.5,611.5 173.5,611.5 174.5,611.5C 195.415,609.943 216.415,608.943 237.5,608.5C 237.5,609.167 237.5,609.833 237.5,610.5C 234.621,614.149 233.288,618.482 233.5,623.5C 244.505,623.667 255.505,623.5 266.5,623C 268.037,621.89 268.703,620.39 268.5,618.5C 263.252,618.324 258.585,616.657 254.5,613.5C 258.299,612.039 258.299,610.372 254.5,608.5C 254.5,608.167 254.5,607.833 254.5,607.5C 354.191,605.592 453.858,606.426 553.5,610C 578.541,611.051 603.541,612.717 628.5,615C 639.269,616.017 649.935,617.684 660.5,620C 662.813,620.641 664.48,621.974 665.5,624C 665.18,625.653 664.18,626.653 662.5,627C 653.285,629.314 643.952,630.98 634.5,632C 585.266,636.44 535.933,639.106 486.5,640C 378.781,642.722 271.114,641.388 163.5,636C 144.447,634.935 125.447,633.268 106.5,631C 98.683,630.284 91.183,628.45 84,625.5C 83.3162,624.216 83.4829,623.049 84.5,622C 86.9573,620.438 89.624,619.438 92.5,619C 111.727,615.845 131.06,613.678 150.5,612.5 Z"/></g>
<g><path style="opacity:1" fill="#779afa" d="M 254.5,607.5 C 254.5,607.833 254.5,608.167 254.5,608.5C 253.325,608.281 252.325,608.614 251.5,609.5C 251.846,610.696 252.346,610.696 253,609.5C 253.692,610.437 253.525,611.103 252.5,611.5C 251.508,611.672 250.842,611.338 250.5,610.5C 250.5,609.833 250.5,609.167 250.5,608.5C 251.538,606.481 252.872,606.147 254.5,607.5 Z"/></g>
<g><path style="opacity:1" fill="#b2c5ef" d="M 254.5,608.5 C 258.299,610.372 258.299,612.039 254.5,613.5C 253.5,613.167 252.833,612.5 252.5,611.5C 253.525,611.103 253.692,610.437 253,609.5C 252.346,610.696 251.846,610.696 251.5,609.5C 252.325,608.614 253.325,608.281 254.5,608.5 Z"/></g>
<g><path style="opacity:1" fill="#2a353b" d="M 237.5,610.5 C 241.833,610.5 246.167,610.5 250.5,610.5C 250.842,611.338 251.508,611.672 252.5,611.5C 252.833,612.5 253.5,613.167 254.5,613.5C 258.585,616.657 263.252,618.324 268.5,618.5C 268.703,620.39 268.037,621.89 266.5,623C 255.505,623.5 244.505,623.667 233.5,623.5C 233.288,618.482 234.621,614.149 237.5,610.5 Z"/></g>
</svg>
