<?xml version="1.0" encoding="UTF-8"?>
<!DOCTYPE svg PUBLIC "-//W3C//DTD SVG 1.1//EN" "http://www.w3.org/Graphics/SVG/1.1/DTD/svg11.dtd">
<svg xmlns="http://www.w3.org/2000/svg" version="1.1" width="666px" height="375px" style="shape-rendering:geometricPrecision; text-rendering:geometricPrecision; image-rendering:optimizeQuality; fill-rule:evenodd; clip-rule:evenodd" xmlns:xlink="http://www.w3.org/1999/xlink">
<g><path style="opacity:1" fill="#efdc35" d="M 249.5,178.5 C 248.502,149.338 248.169,120.005 248.5,90.5C 184.5,90.5 120.5,90.5 56.5,90.5C 56.5,154.5 56.5,218.5 56.5,282.5C 120.5,282.5 184.5,282.5 248.5,282.5C 247.841,252.481 248.508,222.815 250.5,193.5C 250.5,193.833 250.5,194.167 250.5,194.5C 249.502,223.995 249.169,253.662 249.5,283.5C 184.833,283.5 120.167,283.5 55.5,283.5C 55.5,218.833 55.5,154.167 55.5,89.5C 120.167,89.5 184.833,89.5 249.5,89.5C 249.5,119.167 249.5,148.833 249.5,178.5 Z"/></g>
<g><path style="opacity:1" fill="#f6de1e" d="M 249.5,178.5 C 249.5,179.167 249.833,179.5 250.5,179.5C 250.5,180.167 250.833,180.5 251.5,180.5C 255.97,181.486 260.637,181.819 265.5,181.5C 265.5,183.5 265.5,185.5 265.5,187.5C 267.5,187.5 269.5,187.5 271.5,187.5C 271.773,189.451 271.107,190.951 269.5,192C 263.319,192.172 257.319,192.672 251.5,193.5C 251.167,193.5 250.833,193.5 250.5,193.5C 248.508,222.815 247.841,252.481 248.5,282.5C 184.5,282.5 120.5,282.5 56.5,282.5C 56.5,218.5 56.5,154.5 56.5,90.5C 120.5,90.5 184.5,90.5 248.5,90.5C 248.169,120.005 248.502,149.338 249.5,178.5 Z"/></g>
<g><path style="opacity:1" fill="#0179cc" d="M 414.5,194.5 C 410.702,193.517 406.702,193.183 402.5,193.5C 401.609,192.739 400.942,191.739 400.5,190.5C 401.302,187.551 401.636,184.551 401.5,181.5C 405.702,181.817 409.702,181.483 413.5,180.5C 414.167,180.5 414.5,180.167 414.5,179.5C 415.17,149.764 415.837,119.931 416.5,90C 480.167,89.3333 543.833,89.3333 607.5,90C 608.126,90.7504 608.626,91.5838 609,92.5C 609.5,156.166 609.667,219.832 609.5,283.5C 544.833,283.5 480.167,283.5 415.5,283.5C 415.831,253.662 415.498,223.995 414.5,194.5 Z"/></g>
<g><path style="opacity:0.271" fill="#172401" d="M 250.5,91.5 C 251.332,120.33 251.832,149.33 252,178.5C 267.265,179.159 282.431,179.826 297.5,180.5C 294.167,180.5 290.833,180.5 287.5,180.5C 275.5,180.5 263.5,180.5 251.5,180.5C 250.833,180.5 250.5,180.167 250.5,179.5C 250.5,150.167 250.5,120.833 250.5,91.5 Z"/></g>
<g><path style="opacity:1" fill="#030201" d="M 188.5,245.5 C 194.996,253.369 202.996,255.202 212.5,251C 217.381,247.045 217.714,242.878 213.5,238.5C 212.71,237.206 211.71,236.039 210.5,235C 201.722,231.739 193.388,227.739 185.5,223C 175.416,212.238 173.916,200.405 181,187.5C 191.163,177.671 202.996,175.171 216.5,180C 220.916,182.412 224.749,185.578 228,189.5C 228.72,191.112 228.554,192.612 227.5,194C 223.325,196.501 219.159,199.001 215,201.5C 210.568,193.85 204.401,192.017 196.5,196C 193.833,200 193.833,204 196.5,208C 205.136,212.318 213.802,216.651 222.5,221C 233.775,229.568 237.275,240.735 233,254.5C 226.47,265.267 216.803,270.267 204,269.5C 189.506,269.173 178.34,263.007 170.5,251C 175.372,247.967 180.372,245.133 185.5,242.5C 186.288,243.77 187.288,244.77 188.5,245.5 Z"/></g>
<g><path style="opacity:1" fill="#cfeffa" d="M 501.5,195.5 C 508.989,194.671 516.656,194.171 524.5,194C 525.467,189.599 525.8,185.099 525.5,180.5C 503.5,180.5 481.5,180.5 459.5,180.5C 458.771,185.13 458.437,189.797 458.5,194.5C 467.017,194.174 475.35,194.507 483.5,195.5C 474.833,195.5 466.167,195.5 457.5,195.5C 457.5,190.167 457.5,184.833 457.5,179.5C 480.5,179.5 503.5,179.5 526.5,179.5C 526.5,184.833 526.5,190.167 526.5,195.5C 518.167,195.5 509.833,195.5 501.5,195.5 Z"/></g>
<g><path style="opacity:1" fill="#f8fdfd" d="M 556.5,178.5 C 570.521,175.732 581.521,180.065 589.5,191.5C 585.792,195.529 581.458,198.862 576.5,201.5C 574.509,199.543 572.509,197.543 570.5,195.5C 566.892,194.407 563.225,194.24 559.5,195C 554.167,199.667 554.167,204.333 559.5,209C 569.649,213.572 579.316,218.905 588.5,225C 597.208,236.127 597.708,247.627 590,259.5C 580.048,268.064 568.548,270.897 555.5,268C 545.143,265.987 537.476,260.32 532.5,251C 536.599,247.534 541.099,244.7 546,242.5C 549.872,246.036 554.038,249.203 558.5,252C 562.5,252.667 566.5,252.667 570.5,252C 576.785,248.608 578.119,243.775 574.5,237.5C 566.022,232.76 557.355,228.26 548.5,224C 538.303,215.716 535.136,205.216 539,192.5C 542.957,185.365 548.791,180.698 556.5,178.5 Z"/></g>
<g><path style="opacity:1" fill="#080501" d="M 142.5,178.5 C 148.724,179.611 154.724,179.611 160.5,178.5C 161.666,200.492 161.833,222.492 161,244.5C 159.212,261.288 149.879,269.621 133,269.5C 120.675,269.255 111.509,263.755 105.5,253C 110.103,249.782 114.936,246.948 120,244.5C 123.194,248.862 127.36,251.862 132.5,253.5C 135.889,253.344 138.556,252.011 140.5,249.5C 141.268,248.737 141.768,247.737 142,246.5C 142.5,223.836 142.667,201.169 142.5,178.5 Z"/></g>
<g><path style="opacity:1" fill="#fcfefd" d="M 501.5,195.5 C 501.5,219.5 501.5,243.5 501.5,267.5C 495.5,267.5 489.5,267.5 483.5,267.5C 483.5,243.5 483.5,219.5 483.5,195.5C 475.35,194.507 467.017,194.174 458.5,194.5C 458.437,189.797 458.771,185.13 459.5,180.5C 481.5,180.5 503.5,180.5 525.5,180.5C 525.8,185.099 525.467,189.599 524.5,194C 516.656,194.171 508.989,194.671 501.5,195.5 Z"/></g>
<g><path style="opacity:1" fill="#cacb42" d="M 265.5,181.5 C 275.907,181.154 286.241,181.821 296.5,183.5C 297.641,184.425 297.641,185.259 296.5,186C 294.064,185.947 291.731,186.113 289.5,186.5C 290.65,189.32 291.816,189.654 293,187.5C 293.5,188 294,188.5 294.5,189C 293.269,190.405 291.936,191.571 290.5,192.5C 290.5,192.833 290.5,193.167 290.5,193.5C 277.5,193.5 264.5,193.5 251.5,193.5C 257.319,192.672 263.319,192.172 269.5,192C 271.107,190.951 271.773,189.451 271.5,187.5C 269.5,187.5 267.5,187.5 265.5,187.5C 265.5,185.5 265.5,183.5 265.5,181.5 Z"/></g>
<g><path style="opacity:1" fill="#a9bc55" d="M 251.5,180.5 C 263.5,180.5 275.5,180.5 287.5,180.5C 291.97,181.486 296.637,181.819 301.5,181.5C 303.969,182.317 306.635,182.817 309.5,183C 310.609,184.813 309.942,185.646 307.5,185.5C 307.674,187.861 308.007,190.194 308.5,192.5C 302.5,192.5 296.5,192.5 290.5,192.5C 291.936,191.571 293.269,190.405 294.5,189C 294,188.5 293.5,188 293,187.5C 291.816,189.654 290.65,189.32 289.5,186.5C 291.731,186.113 294.064,185.947 296.5,186C 297.641,185.259 297.641,184.425 296.5,183.5C 286.241,181.821 275.907,181.154 265.5,181.5C 260.637,181.819 255.97,181.486 251.5,180.5 Z"/></g>
<g><path style="opacity:1" fill="#6aa487" d="M 343.5,181.5 C 348.194,180.896 352.528,181.729 356.5,184C 356.034,185.299 356.034,186.799 356.5,188.5C 355.5,188.5 354.5,188.5 353.5,188.5C 353.5,187.5 353.5,186.5 353.5,185.5C 352.5,185.5 351.5,185.5 350.5,185.5C 350.5,186.833 350.5,188.167 350.5,189.5C 356.495,190.115 356.829,191.448 351.5,193.5C 342.833,193.5 334.167,193.5 325.5,193.5C 331.31,192.51 337.31,192.177 343.5,192.5C 343.649,191.448 343.483,190.448 343,189.5C 341.243,188.881 340.076,187.714 339.5,186C 340.8,184.42 342.134,182.92 343.5,181.5 Z"/></g>
<g><path style="opacity:1" fill="#7dab78" d="M 287.5,180.5 C 290.833,180.5 294.167,180.5 297.5,180.5C 306.833,180.5 316.167,180.5 325.5,180.5C 331.31,181.49 337.31,181.823 343.5,181.5C 342.134,182.92 340.8,184.42 339.5,186C 340.076,187.714 341.243,188.881 343,189.5C 343.483,190.448 343.649,191.448 343.5,192.5C 337.31,192.177 331.31,192.51 325.5,193.5C 316.167,193.5 306.833,193.5 297.5,193.5C 295.167,193.5 292.833,193.5 290.5,193.5C 290.5,193.167 290.5,192.833 290.5,192.5C 296.5,192.5 302.5,192.5 308.5,192.5C 312.167,192.5 315.833,192.5 319.5,192.5C 318.769,190.401 318.769,188.401 319.5,186.5C 321.21,185.313 322.71,185.646 324,187.5C 325.171,186.66 326.338,185.827 327.5,185C 319.222,181.809 310.555,180.642 301.5,181.5C 296.637,181.819 291.97,181.486 287.5,180.5 Z"/></g>
<g><path style="opacity:0.996" fill="#3d8ba2" d="M 385.5,180.5 C 387.167,180.5 388.833,180.5 390.5,180.5C 390.421,181.93 390.754,183.264 391.5,184.5C 389.321,186.283 389.321,188.283 391.5,190.5C 387.479,190.838 383.479,191.838 379.5,193.5C 374.833,193.5 370.167,193.5 365.5,193.5C 366.284,190.985 365.617,188.651 363.5,186.5C 364.167,186.167 364.833,185.833 365.5,185.5C 367.336,186.933 369.336,187.433 371.5,187C 371.306,185.57 371.306,184.07 371.5,182.5C 368.932,181.132 366.599,181.466 364.5,183.5C 363.099,182.479 361.765,181.479 360.5,180.5C 368.431,179.652 376.765,179.652 385.5,180.5 Z"/></g>
<g><path style="opacity:1" fill="#98b660" d="M 301.5,181.5 C 310.555,180.642 319.222,181.809 327.5,185C 326.338,185.827 325.171,186.66 324,187.5C 322.71,185.646 321.21,185.313 319.5,186.5C 318.769,188.401 318.769,190.401 319.5,192.5C 315.833,192.5 312.167,192.5 308.5,192.5C 308.007,190.194 307.674,187.861 307.5,185.5C 309.942,185.646 310.609,184.813 309.5,183C 306.635,182.817 303.969,182.317 301.5,181.5 Z"/></g>
<g><path style="opacity:1" fill="#569890" d="M 325.5,180.5 C 337.167,180.5 348.833,180.5 360.5,180.5C 361.765,181.479 363.099,182.479 364.5,183.5C 366.599,181.466 368.932,181.132 371.5,182.5C 371.306,184.07 371.306,185.57 371.5,187C 369.336,187.433 367.336,186.933 365.5,185.5C 364.833,185.833 364.167,186.167 363.5,186.5C 365.617,188.651 366.284,190.985 365.5,193.5C 360.519,194.375 355.853,194.375 351.5,193.5C 356.829,191.448 356.495,190.115 350.5,189.5C 350.5,188.167 350.5,186.833 350.5,185.5C 351.5,185.5 352.5,185.5 353.5,185.5C 353.5,186.5 353.5,187.5 353.5,188.5C 354.5,188.5 355.5,188.5 356.5,188.5C 356.034,186.799 356.034,185.299 356.5,184C 352.528,181.729 348.194,180.896 343.5,181.5C 337.31,181.823 331.31,181.49 325.5,180.5 Z"/></g>
<g><path style="opacity:1" fill="#e5d75f" d="M 142.5,178.5 C 142.667,201.169 142.5,223.836 142,246.5C 141.768,247.737 141.268,248.737 140.5,249.5C 141.106,225.679 141.772,202.013 142.5,178.5 Z"/></g>
<g><path style="opacity:0.629" fill="#2987b6" d="M 390.5,180.5 C 398.167,180.5 405.833,180.5 413.5,180.5C 409.702,181.483 405.702,181.817 401.5,181.5C 401.636,184.551 401.302,187.551 400.5,190.5C 400.942,191.739 401.609,192.739 402.5,193.5C 396.833,193.5 391.167,193.5 385.5,193.5C 383.389,194.38 381.389,194.38 379.5,193.5C 383.479,191.838 387.479,190.838 391.5,190.5C 389.321,188.283 389.321,186.283 391.5,184.5C 390.754,183.264 390.421,181.93 390.5,180.5 Z"/></g>
<g><path style="opacity:0.725" fill="#dfdc6e" d="M 250.5,91.5 C 250.5,120.833 250.5,150.167 250.5,179.5C 249.833,179.5 249.5,179.167 249.5,178.5C 249.5,148.833 249.5,119.167 249.5,89.5C 184.833,89.5 120.167,89.5 55.5,89.5C 55.5,154.167 55.5,218.833 55.5,283.5C 120.167,283.5 184.833,283.5 249.5,283.5C 249.169,253.662 249.502,223.995 250.5,194.5C 250.5,224.5 250.5,254.5 250.5,284.5C 185.167,284.5 119.833,284.5 54.5,284.5C 54.5,220.167 54.5,155.833 54.5,91.5C 54.5,90.5 54.5,89.5 54.5,88.5C 119.833,88.5 185.167,88.5 250.5,88.5C 250.5,89.5 250.5,90.5 250.5,91.5 Z"/></g>
<g><path style="opacity:0.725" fill="#1b71b2" d="M 414.5,194.5 C 415.498,223.995 415.831,253.662 415.5,283.5C 480.167,283.5 544.833,283.5 609.5,283.5C 609.667,219.832 609.5,156.166 609,92.5C 608.626,91.5838 608.126,90.7504 607.5,90C 543.833,89.3333 480.167,89.3333 416.5,90C 415.837,119.931 415.17,149.764 414.5,179.5C 414.5,149.167 414.5,118.833 414.5,88.5C 479.833,88.5 545.167,88.5 610.5,88.5C 610.5,153.833 610.5,219.167 610.5,284.5C 545.167,284.5 479.833,284.5 414.5,284.5C 414.5,254.5 414.5,224.5 414.5,194.5 Z"/></g>
<g><path style="opacity:0.271" fill="#162201" d="M 54.5,91.5 C 54.5,155.833 54.5,220.167 54.5,284.5C 119.833,284.5 185.167,284.5 250.5,284.5C 250.5,254.5 250.5,224.5 250.5,194.5C 250.5,194.167 250.5,193.833 250.5,193.5C 250.833,193.5 251.167,193.5 251.5,193.5C 264.5,193.5 277.5,193.5 290.5,193.5C 292.833,193.5 295.167,193.5 297.5,193.5C 282.431,194.174 267.265,194.841 252,195.5C 251.5,225.498 251.333,255.498 251.5,285.5C 185.5,285.5 119.5,285.5 53.5,285.5C 53.1675,220.665 53.5009,155.998 54.5,91.5 Z"/></g>
<g><path style="opacity:1" fill="#e4d543" d="M 213.5,238.5 C 217.714,242.878 217.381,247.045 212.5,251C 202.996,255.202 194.996,253.369 188.5,245.5C 192.619,248.078 196.953,250.245 201.5,252C 203.167,252.667 204.833,252.667 206.5,252C 208.716,250.356 211.049,248.856 213.5,247.5C 214.643,244.502 214.643,241.502 213.5,238.5 Z"/></g>
<g><path style="opacity:0.271" fill="#00285a" d="M 385.5,193.5 C 391.167,193.5 396.833,193.5 402.5,193.5C 406.702,193.183 410.702,193.517 414.5,194.5C 414.5,224.5 414.5,254.5 414.5,284.5C 479.833,284.5 545.167,284.5 610.5,284.5C 610.5,219.167 610.5,153.833 610.5,88.5C 545.167,88.5 479.833,88.5 414.5,88.5C 414.5,118.833 414.5,149.167 414.5,179.5C 414.5,180.167 414.167,180.5 413.5,180.5C 405.833,180.5 398.167,180.5 390.5,180.5C 388.833,180.5 387.167,180.5 385.5,180.5C 394.568,179.821 403.735,179.155 413,178.5C 413.5,148.168 413.667,117.835 413.5,87.5C 479.5,87.5 545.5,87.5 611.5,87.5C 611.5,153.5 611.5,219.5 611.5,285.5C 545.5,285.5 479.5,285.5 413.5,285.5C 413.667,255.498 413.5,225.498 413,195.5C 403.735,194.845 394.568,194.179 385.5,193.5 Z"/></g>
</svg>
